<svg width="452" height="114" viewBox="0 0 452 114" fill="none" xmlns="http://www.w3.org/2000/svg">
<path d="M448.819 112.977C448.22 112.916 449.605 113.033 449.664 113.04C449.836 113.062 449.087 113.003 448.819 112.977ZM332.779 103.313C332.851 103.386 331.402 103.337 331.356 103.343C331.303 103.351 331.568 103.515 331.613 103.523C331.778 103.547 335.193 103.464 336.022 103.546C336.037 103.547 336.052 103.549 336.065 103.551C335.77 103.453 338.742 103.549 339.065 103.524C339.151 103.517 338.831 103.457 338.922 103.451C339.497 103.419 341.05 103.539 341.771 103.552C342.578 103.565 342.478 103.514 342.522 103.515C342.877 103.523 342.594 103.553 342.811 103.556C343.139 103.559 345.393 103.604 345.507 103.6C345.536 103.597 345.175 103.534 345.664 103.532C345.749 103.532 345.696 103.598 347.149 103.599C348.9 103.601 345.936 103.488 346.664 103.433C347.787 103.557 347.753 103.457 348.058 103.472C348.165 103.477 348.949 103.58 349.802 103.596C349.188 103.594 348.575 103.593 347.962 103.594C348.564 103.622 349.734 103.631 350.23 103.661C350.472 103.676 350.272 103.739 350.798 103.751C350.91 103.753 351.356 103.595 349.977 103.636C349.868 103.572 350.522 103.629 350.827 103.62C350.873 103.619 351.058 103.522 351.445 103.596C351.535 103.615 350.519 103.878 353.143 103.74C353.226 103.736 352.935 103.691 353.017 103.686C353.075 103.682 353.742 103.717 353.815 103.714C353.889 103.71 353.57 103.66 353.659 103.655C354.12 103.629 354.72 103.807 353.771 103.766C354.088 103.795 354.405 103.824 354.722 103.854C354.386 103.723 355.222 103.836 355.661 103.847C358.478 103.92 356.595 103.778 357.08 103.755C357.862 103.719 357.26 103.9 358.42 103.882C358.526 103.881 357.13 103.74 359.863 103.895C359.459 103.882 359.055 103.869 358.651 103.857C358.88 103.98 360.109 103.906 360.204 103.908C361.273 103.936 360.549 103.946 362.14 103.955C362.282 103.956 362.59 103.998 362.895 103.997C364.153 103.995 361.237 103.89 361.157 103.842C361.119 103.816 364.259 103.959 364.368 103.977C364.823 104.044 362.942 103.933 363.299 104.008C363.43 104.031 367.922 104.203 368.808 104.275C369.84 104.356 370.3 104.529 370.314 104.362C370.6 104.542 370.863 104.445 370.996 104.453C372.6 104.557 372.603 104.56 373.984 104.625C374.286 104.64 374.538 104.703 374.646 104.701C374.707 104.7 374.595 104.641 374.899 104.644C375.322 104.646 377.866 104.859 378.059 104.9C378.246 104.941 376.98 104.844 377.205 104.905C378.122 104.968 379.004 105.013 379.932 105.079C380.316 105.107 380.117 105.126 380.283 105.138C380.357 105.143 381.679 105.204 381.624 105.188C381.5 105.15 377.392 104.899 378.478 104.913C378.687 104.916 379.417 105.038 379.306 104.94C382.959 105.203 386.626 105.49 390.257 105.798C388.177 105.696 385.79 105.46 383.6 105.31C383.299 105.289 382.284 105.209 382.404 105.263C384.263 105.403 386.599 105.551 388.396 105.718C388.453 105.723 388.242 105.745 388.455 105.768C388.853 105.809 390.158 105.849 390.378 105.883C390.413 105.889 389.671 105.881 389.894 105.931C390.467 106.057 390.627 105.888 391.126 105.931C391.512 105.963 394.107 106.259 394.764 106.262C395.457 106.263 392.842 106.068 393.039 106.038C394.816 106.138 396.581 106.34 398.239 106.481C398.268 106.484 398.018 106.426 398.388 106.454C399.032 106.503 399.199 106.567 399.513 106.604C399.851 106.642 401.054 106.745 401.214 106.777C401.233 106.782 400.987 106.808 400.949 106.806C400.424 106.778 400.243 106.699 400.195 106.693C400.017 106.675 399.84 106.683 399.677 106.667C399.409 106.641 399.262 106.605 398.909 106.571C398.665 106.548 398.897 106.613 398.662 106.59C398.575 106.581 397.655 106.4 397.561 106.494C397.629 106.527 405.156 107.248 405.898 107.304C405.248 107.23 404.599 107.157 403.951 107.084C405.265 107.235 406.863 107.316 406.968 107.436C411.896 107.92 416.815 108.439 421.683 108.983C422.559 109.088 422.072 109.088 423.521 109.232C423.148 109.174 422.775 109.115 422.403 109.057C423.141 109.15 426.432 109.542 426.944 109.592C427.013 109.598 427.111 109.564 427.924 109.655C428.646 109.736 428.76 109.783 429.146 109.834C429.47 109.877 429.836 109.911 429.934 109.924C430.008 109.934 430.036 109.956 430.214 109.98C430.777 110.057 430.325 109.951 430.88 110.077C430.743 110.063 430.606 110.05 430.47 110.036C431.143 110.124 432.063 110.256 431.104 110.158C431.308 110.18 431.501 110.203 431.674 110.221C432.133 110.299 434.656 110.579 434.742 110.595C434.857 110.615 434.426 110.584 434.988 110.667C435.105 110.683 438.483 111.071 437.264 110.956C437.01 110.932 435.394 110.736 435.006 110.691C435.913 110.846 438.076 111.031 438.322 111.063C439.303 111.187 436.434 110.88 438.645 111.146C440.348 111.352 438.751 111.133 439.408 111.198C439.775 111.236 441.711 111.499 441.659 111.455C442.31 111.531 441.928 111.503 442.008 111.515C442.091 111.526 443.37 111.673 443.787 111.731C443.836 111.738 443.676 111.736 443.729 111.744C443.832 111.759 445.074 111.908 445.125 111.913C445.153 111.915 444.862 111.865 444.983 111.876C445.126 111.889 446.327 112.042 446.395 112.047C446.485 112.052 445.006 111.871 445.253 111.886C445.935 111.975 447.053 112.106 447.509 112.152C447.397 112.141 446.732 112.058 446.501 112.027C446.601 112.02 447.745 112.164 447.646 112.163C447.814 112.178 447.673 112.158 447.826 112.17C447.873 112.174 448.316 112.231 448.401 112.238C448.394 112.236 447.959 112.172 448.048 112.18C448.214 112.194 449.559 112.372 449.67 112.389C449.979 112.434 448.881 112.296 448.788 112.293C448.801 112.296 449.708 112.43 449.722 112.433C449.77 112.453 448.736 112.31 448.854 112.339C449.11 112.374 449.367 112.41 449.624 112.445C448.628 112.332 446.805 112.096 446.335 112.056C447.787 112.23 449.321 112.425 449.325 112.459C449.321 112.472 448.743 112.411 448.712 112.411C448.806 112.436 449.686 112.529 449.719 112.534C449.745 112.538 449.757 112.54 449.757 112.541C449.731 112.545 448.504 112.402 448.438 112.397C448.333 112.392 448.872 112.483 448.885 112.49C448.861 112.488 447.973 112.391 448.272 112.437C448.576 112.483 449.358 112.574 449.386 112.578C449.532 112.601 448.167 112.449 448.124 112.448C448.138 112.452 448.831 112.543 448.856 112.549C448.871 112.554 448.315 112.498 448.095 112.484C447.931 112.474 448.406 112.533 448.322 112.525C448.257 112.519 446.98 112.376 446.911 112.37C446.817 112.362 447.116 112.406 447.072 112.403C447.009 112.4 446.596 112.352 446.648 112.361C446.691 112.37 448.296 112.578 448.287 112.585C448.267 112.597 446.56 112.381 448.146 112.609C448.16 112.611 448.543 112.648 448.556 112.649C448.794 112.685 447.548 112.572 449.07 112.727C446.239 112.453 448.715 112.713 448.294 112.694C448.132 112.687 447.059 112.585 447.031 112.584C447.137 112.607 447.486 112.631 447.604 112.649C447.664 112.659 446.689 112.577 446.907 112.607C447.021 112.623 448.057 112.722 448.104 112.728C448.515 112.775 448.009 112.736 448.099 112.75C448.159 112.76 448.788 112.82 448.805 112.822C448.79 112.823 447.97 112.76 447.796 112.749C447.661 112.741 448.166 112.794 448.072 112.787C447.502 112.745 446.301 112.605 447.458 112.753C447.529 112.762 447.963 112.801 447.982 112.803C448.253 112.839 447.443 112.766 447.297 112.763C447.046 112.757 448.212 112.852 447.242 112.776C447.967 112.852 448.373 112.886 449.229 112.96C446.864 112.755 446.031 112.731 448.649 112.954C447.815 112.881 447.906 112.913 447.657 112.893C447.502 112.88 446.301 112.754 446.847 112.854C446.916 112.867 447.648 112.918 447.418 112.913C445.662 112.766 447.38 112.919 447.382 112.921C447.349 112.949 443.082 112.583 442.361 112.529C441.523 112.468 440.755 112.441 440.566 112.427C439.951 112.379 440.462 112.402 440.326 112.385C440.186 112.367 438.441 112.266 438.354 112.258C438.018 112.224 438.36 112.228 438.326 112.225C437.907 112.178 435.584 112.016 434.939 111.962C434.97 111.98 436.254 112.079 435.443 112.043C434.499 112.003 434.449 111.928 434.425 111.922C430.046 111.587 425.743 111.268 421.345 110.954C421.395 111.01 424.25 111.176 424.323 111.188C424.696 111.253 419.869 110.911 419.292 110.853C419.737 110.896 420.183 110.939 420.63 110.981C419.857 110.99 418.19 110.793 417.077 110.746C416.717 110.731 417.403 110.804 417.393 110.805C416.984 110.803 416.335 110.739 416.824 110.737C415.832 110.704 415.979 110.677 415.223 110.623C415.185 110.62 415.505 110.669 414.907 110.641C414.626 110.627 413.137 110.529 412.935 110.541C412.852 110.546 413.596 110.704 413.698 110.617C415.316 110.768 414.221 110.608 414.851 110.651C414.948 110.658 414.719 110.695 416.316 110.776C416.003 110.847 414.177 110.66 413.863 110.65C413.214 110.633 415.875 110.85 416.376 110.812C416.14 110.868 416.565 110.834 417.163 110.877C417.816 110.923 417.527 110.925 417.876 110.948C418.827 111.011 418.437 110.937 419.22 111.032C418.464 110.848 420.568 111.107 421.187 111.181C420.178 111.12 419.174 111.06 418.174 111.002C418.23 111.013 418.287 111.023 418.344 111.034C418.081 111.016 417.817 110.998 417.555 110.98C417.597 110.976 417.64 110.972 417.683 110.968C416.306 110.923 415.967 110.851 415.856 110.843C414.41 110.743 412.75 110.638 411.306 110.548C411.088 110.534 411.235 110.593 409.657 110.457C409.147 110.413 409.633 110.403 409.053 110.373C408.32 110.436 408.341 110.351 408.126 110.338C407.51 110.3 407.132 110.304 407.074 110.301C406.314 110.259 405.206 110.189 404.377 110.145C404.398 110.149 404.764 110.202 404.252 110.162C404.059 110.148 402.393 109.897 400.881 109.859C401.269 109.892 401.658 109.925 402.048 109.958C401.585 109.915 398.385 109.773 399.164 109.86C399.641 109.912 400.82 109.879 400.942 109.982C399.862 109.889 394.043 109.619 393.561 109.572C393.497 109.565 393.888 109.552 393.803 109.543C393.735 109.536 392.386 109.473 392.208 109.451C392.104 109.438 392.695 109.448 392.651 109.434C392.609 109.422 390.932 109.32 390.833 109.358C391.245 109.362 392.403 109.438 391.793 109.442C391.714 109.443 391.313 109.395 391.217 109.396C390.333 109.403 392.965 109.524 393.376 109.547C391.708 109.514 389.174 109.322 387.256 109.267C386.48 109.192 388.413 109.266 387.535 109.192C385.714 109.04 387.044 109.22 386.988 109.222C386.532 109.237 385.006 108.962 384.994 109.116C384.337 109.062 384.55 109.053 383.621 109.03C383.742 109.047 383.864 109.063 383.985 109.079C382.949 109.122 380.792 108.797 380.953 108.785C381.393 108.757 382.52 108.882 382.618 108.885C382.762 108.888 383.166 108.748 384.731 108.964C385.379 108.889 382.244 108.774 383.674 108.77C382.713 108.734 378.753 108.478 378.174 108.502C378.105 108.505 378.416 108.629 377.438 108.531C376.975 108.485 378.097 108.531 377.886 108.497C377.238 108.384 368.317 108.079 366.636 108.037C366.526 108.034 366.567 107.999 366.459 107.996C366.126 107.986 364.912 107.999 364.318 107.964C365.546 108.07 363.156 107.999 362.55 107.975C361.629 107.936 361.688 107.873 361.291 107.848C359.768 107.749 357.368 107.841 356.183 107.667C356.242 107.813 354.122 107.547 353.156 107.525C352.396 107.508 351.293 107.582 352.316 107.662C351.005 107.628 349.625 107.63 348.397 107.618C348.195 107.616 348.475 107.578 348.129 107.576C348.097 107.576 348.053 107.618 347.756 107.618C345.303 107.617 346.496 107.544 346.038 107.511C345.781 107.492 345.591 107.482 345.452 107.478C346.886 107.489 348.533 107.5 348.976 107.507C348.601 107.405 345.805 107.473 344.984 107.438C344.957 107.436 345.055 107.386 345.027 107.385H345.025C344.718 107.376 342.763 107.372 343.165 107.439C343.276 107.457 344.175 107.468 345.24 107.477C344.951 107.484 345.165 107.545 345.114 107.547C344.495 107.567 342.982 107.492 342.445 107.479C342.323 107.476 342.331 107.513 342.311 107.513C341.823 107.499 342.024 107.395 341.522 107.5C340.64 107.357 343.178 107.497 343.002 107.409C342.865 107.337 337.229 107.325 337.234 107.434C337.215 107.422 337.137 107.408 336.979 107.392C336.822 107.375 336.423 107.366 336.006 107.363C335.485 107.36 334.932 107.367 334.781 107.377C334.736 107.381 334.753 107.482 334.697 107.483C334.556 107.485 332.633 107.401 331.917 107.462C332.304 107.476 332.691 107.491 333.078 107.506C330.74 107.504 331.102 107.536 331.881 107.566C331.919 107.567 331.957 107.571 331.994 107.571C332.597 107.594 333.373 107.617 333.385 107.625C333.401 107.654 329.466 107.671 330.225 107.577C330.332 107.564 332.166 107.605 331.258 107.538C331.099 107.526 329.927 107.547 329.858 107.54C329.444 107.491 332.016 107.422 331.703 107.353C331.079 107.42 330.277 107.384 329.56 107.403C329.234 107.412 329.154 107.463 329.113 107.465C328.512 107.48 328.848 107.425 328.647 107.427C328.537 107.428 327.356 107.546 327.577 107.389C323.67 107.525 326.497 107.506 328.895 107.49C328.138 107.549 326.652 107.529 325.985 107.546C325.747 107.552 325.888 107.603 325.485 107.616C324.658 107.641 320.692 107.616 319.653 107.616C320.289 107.59 320.102 107.536 319.611 107.546C319.121 107.556 319.533 107.626 319.438 107.636C319.335 107.645 317.043 107.64 316.66 107.656C318.387 107.604 317.997 107.552 316.53 107.568C316.742 107.549 316.954 107.53 317.166 107.511C316.307 107.546 314.494 107.491 313.995 107.525C313.917 107.531 314.199 107.572 314.155 107.575C313.72 107.602 312.225 107.583 312.16 107.601C312.104 107.615 312.735 107.642 312.501 107.666C312.451 107.671 311.843 107.62 311.243 107.647C311.021 107.658 311.155 107.698 311.1 107.702C310.633 107.733 310.907 107.653 310.053 107.684C309.427 107.706 308.961 107.788 308.093 107.784C310.942 107.812 308.55 107.827 307.357 107.883C307.167 107.892 307.333 107.967 306.188 107.956C308.62 107.754 305.485 107.896 304.857 107.912C304.823 107.912 304.809 107.862 304.498 107.869C304.472 107.87 304.51 107.904 304.221 107.914C301.474 108.014 303.228 107.927 302.706 107.907C302.483 107.899 301.144 107.986 300.781 107.998C300.698 108.001 300.735 107.964 300.413 107.976C299.844 107.995 299.334 108.049 298.957 108.063C298.914 108.065 298.904 108.009 298.198 108.05C298 108.061 297.778 108.089 298.061 108.096C298.998 108.118 300.797 107.971 301.86 107.994C302.832 108.015 299.771 108.108 299.608 108.114C299.551 108.116 300.148 108.07 299.539 108.083C299.016 108.095 298.074 108.221 297.306 108.225C297.247 108.225 296.633 108.164 296.656 108.158C296.684 108.154 297.625 108.105 297.487 108.086C297.469 108.084 296.872 108.104 296.792 108.089C296.695 108.071 296.427 107.871 296.299 107.87C295.969 107.869 296.185 107.909 295.972 107.913C295.514 107.922 293.922 107.919 293.873 107.992C294.136 107.987 294.399 107.981 294.662 107.976C293.201 108.036 293.824 108.045 293.618 108.065C293.396 108.088 293.455 108.022 292.961 108.035C292.849 108.038 290.785 108.131 290.83 108.155C291.957 108.07 291.547 108.163 291.598 108.162C291.799 108.159 292.053 108.106 292.322 108.097C294.214 108.032 292.31 108.173 292.757 108.174C292.911 108.174 293.215 108.126 293.28 108.125C293.492 108.123 293.498 108.172 293.639 108.163C293.967 108.142 293.581 108.087 293.606 108.082C293.899 108.028 295.052 108.041 294.339 108.142C294.77 108.153 294.817 108.06 295.159 108.085C295.838 108.134 294.826 108.15 294.55 108.172C293.564 108.25 293.269 108.226 291.865 108.29C291.355 108.313 290.774 108.379 290.54 108.391C290.395 108.397 289.005 108.301 288.975 108.537C288.436 108.535 287.583 108.416 287.026 108.446C286.527 108.473 286.689 108.549 286.643 108.554C286.57 108.562 285.966 108.58 285.762 108.601C285.522 108.624 285.643 108.65 285.263 108.679C284.316 108.75 284.333 108.668 284.237 108.666C283.117 108.653 283.611 108.747 283.364 108.768C283.137 108.785 279.881 108.886 279.19 108.948C279.47 108.919 279.75 108.89 280.028 108.861C279.525 108.835 278.997 108.94 278.982 108.852C278.889 109 277.847 108.953 277.534 108.972C277.412 108.979 277.422 109.003 277.269 109.012C276.667 109.045 275.337 109.09 275.013 109.118C273.626 109.237 277.18 109.152 277.475 109.146C276.9 109.17 273.739 109.352 275.199 109.35C275.426 109.349 275.822 109.268 275.948 109.26C276.801 109.203 276.136 109.291 276.2 109.294C276.315 109.297 276.874 109.216 277.024 109.216C277.074 109.216 276.755 109.282 277.583 109.245C277.164 109.314 274.883 109.378 274.575 109.405C274.467 109.415 275.151 109.487 273.169 109.48C273.192 109.489 273.216 109.497 273.239 109.506C272.138 109.563 271.032 109.621 269.921 109.681C270.041 109.653 270.66 109.578 269.876 109.627C269.425 109.655 269.76 109.686 269.721 109.689C269.34 109.718 262.192 110.075 260.822 110.159C260.357 110.186 259.06 110.292 258.957 110.299C258.364 110.335 256.243 110.431 255.817 110.461C255.553 110.479 255.807 110.499 255.57 110.511C255.35 110.522 255.575 110.476 255.51 110.479C254.942 110.499 250.91 110.775 249.927 110.805C250.523 110.778 253.447 110.543 253.398 110.522C253.386 110.52 252.67 110.538 252.523 110.559C252.278 110.546 251.448 110.678 250.99 110.689C250.938 110.691 251.138 110.632 250.321 110.674C250.04 110.688 249.306 110.768 248.558 110.775C247.453 110.86 241.855 111.161 241.457 111.231C241.47 111.233 242.234 111.199 241.707 111.25C240.994 111.319 241.629 111.199 240.794 111.247C240.667 111.254 238.343 111.415 238.259 111.425C237.554 111.512 239.596 111.396 239.57 111.403C239.498 111.42 237.797 111.537 237.74 111.537C237.794 111.527 238.954 111.403 237.4 111.523C237.587 111.518 237.774 111.511 237.961 111.506C237.197 111.568 237.119 111.536 236.934 111.546C236.355 111.577 235.734 111.671 234.796 111.667C234.548 111.666 234.954 111.62 234.924 111.619C234.626 111.616 234.253 111.703 233.803 111.688C233.778 111.686 234.799 111.588 232.988 111.713C233.114 111.709 233.24 111.703 233.365 111.699C233.11 111.726 231.263 111.86 231.012 111.875C230.282 111.919 230.915 111.845 230.182 111.9C230.647 111.908 228.448 112.065 228.574 112.023C228.274 112.085 226.408 112.184 225.524 112.246C224.969 112.285 223.83 112.382 223.651 112.393C223.435 112.406 223.498 112.377 223.106 112.4C222.998 112.407 221.821 112.508 220.804 112.56C220.609 112.569 220.197 112.564 220.558 112.528C221.161 112.468 222.379 112.406 222.36 112.385C222.326 112.363 220.724 112.5 220.312 112.527C218.35 112.663 219.474 112.555 219.427 112.551C219.295 112.544 218.226 112.628 218.173 112.631C217.986 112.639 218.744 112.566 218.758 112.555C218.741 112.542 217.734 112.601 217.966 112.578C218.304 112.544 219.257 112.486 219.318 112.48C220.102 112.404 219.024 112.46 218.725 112.471C218.634 112.474 218.991 112.436 218.917 112.44C217.775 112.517 218.681 112.503 217.921 112.562C217.258 112.614 218.074 112.528 218.088 112.524C218.055 112.526 217.243 112.593 217.114 112.598C217.053 112.6 219.153 112.383 219.064 112.372C218.395 112.434 217.723 112.496 217.049 112.559C216.996 112.542 217.965 112.473 218.064 112.462C218.264 112.44 217.704 112.477 217.726 112.469C217.74 112.463 218.395 112.389 217.8 112.436C217.595 112.452 217.167 112.505 216.417 112.558C219.011 112.305 217.219 112.453 217.136 112.454C217.06 112.454 218.298 112.321 216.793 112.464C216.724 112.43 216.824 112.447 217.251 112.4C217.773 112.343 216.565 112.442 218.476 112.273C218.365 112.263 216.83 112.41 216.746 112.417C216.676 112.422 217.017 112.38 216.895 112.389C215.445 112.492 216.44 112.412 216.019 112.431C215.977 112.432 214.611 112.56 215.653 112.453C217.552 112.258 218.338 112.212 218.649 112.118C217.256 112.231 215.559 112.441 215.129 112.483C214.475 112.55 215.148 112.472 215.07 112.477C215.042 112.478 214.48 112.536 214.469 112.536C214.065 112.538 216.983 112.279 217.888 112.183C217.643 112.2 217.398 112.218 217.153 112.236C217.485 112.202 217.816 112.169 218.146 112.135C216.569 112.281 218.09 112.136 218.479 112.058C218.565 112.04 217.535 112.162 218.711 112.016C217.841 112.1 218.117 112.064 217.329 112.157C217.35 112.141 219.121 111.937 219.814 111.855C217.351 112.099 218.763 112.004 216.619 112.202C216.223 112.262 217.245 112.15 217.163 112.162C216.865 112.204 216.162 112.262 215.314 112.386C215.176 112.406 215.764 112.362 214.896 112.451C214.801 112.461 214.272 112.502 214.252 112.503C214.326 112.484 214.867 112.431 214.895 112.424C214.868 112.423 214.311 112.484 214.302 112.483C214.286 112.472 214.811 112.424 214.734 112.428C214.565 112.435 212.366 112.643 215.236 112.343C212.853 112.615 214.936 112.391 215.859 112.286C216.095 112.259 216.154 112.244 216.489 112.205C216.92 112.155 217.424 112.105 217.646 112.08C217.885 112.053 216.525 112.175 218.489 111.972C217.49 112.055 215.719 112.271 214.725 112.365C212.719 112.559 216.118 112.177 216.466 112.136C216.558 112.125 216.245 112.147 216.306 112.14C216.41 112.126 218.321 111.921 218.507 111.89C218.692 111.858 217.814 111.966 217.749 111.962C217.803 111.948 219.977 111.692 218.761 111.822C217.906 111.915 216.321 112.123 216.048 112.123C217.318 111.976 218.58 111.83 219.835 111.687C219.147 111.75 218.456 111.816 217.764 111.883C219.187 111.715 220.376 111.595 221.748 111.42C218.491 111.744 222.79 111.262 222.856 111.249C222.827 111.247 221.576 111.353 221.369 111.371C222.52 111.222 225.969 110.814 223.944 110.997C224.31 110.966 225.182 110.835 225.185 110.832C225.071 110.821 223.135 111.066 223.448 111.009C223.813 110.942 224.33 110.912 224.892 110.843C227.769 110.491 226.96 110.451 229.833 110.13C229.775 110.132 229.716 110.134 229.657 110.136C232.848 109.765 235.937 109.418 239.095 109.078C240.335 108.887 243.606 108.489 245.194 108.326C245.506 108.293 247.113 108.156 247.235 108.149C247.46 108.137 246.228 108.27 246.787 108.231C246.915 108.221 249.613 107.958 249.417 107.942C249.115 107.969 248.17 108.085 248.012 108.093C246.943 108.14 255.184 107.349 255.636 107.288C255.45 107.293 255.263 107.299 255.077 107.305C255.606 107.259 256.134 107.214 256.66 107.17C256.448 107.202 256.236 107.233 256.023 107.265C256.63 107.213 257.442 107.128 258.002 107.086C258.092 107.079 257.859 107.134 258.075 107.115C258.291 107.096 258.247 107.055 258.561 107.021C258.915 106.981 260.525 106.863 261.079 106.812C263.173 106.618 265.312 106.401 267.399 106.244C265.241 106.465 267.421 106.316 268.023 106.25C268.163 106.235 268.111 106.145 270.307 105.987C271.699 105.889 270.427 106.128 272.737 105.876C270.951 105.921 272.705 105.787 274.093 105.676C274.336 105.656 276.256 105.523 277.116 105.455C277.412 105.432 277.858 105.346 278.249 105.315C278.518 105.295 278.723 105.31 279.121 105.279C280.982 105.138 282.785 105.011 284.645 104.898C283.56 105.111 285.504 104.903 285.592 104.904C286.038 104.914 284.027 105.055 284.824 105.027C285.937 104.951 287.046 104.877 288.15 104.806C287.243 104.843 289.344 104.611 289.732 104.636C289.551 104.513 294.789 104.461 295.576 104.383C295.74 104.365 294.66 104.353 297.164 104.257C297.435 104.247 297.334 104.293 297.476 104.282C297.562 104.276 298.067 104.121 298.623 104.166C298.825 104.183 297.538 104.327 300.374 104.162C299.244 104.079 304.297 103.916 305.216 103.919C305.031 103.908 304.845 103.897 304.66 103.887C305.573 103.899 305.742 103.847 305.949 103.842C306.787 103.82 307.937 103.825 308.714 103.794C309.622 103.758 309.623 103.674 310.682 103.673C310.43 103.662 310.178 103.651 309.927 103.641C310.658 103.621 311.388 103.603 312.117 103.586C310.433 103.75 312.478 103.58 312.618 103.574C312.835 103.564 312.524 103.619 312.888 103.603C312.925 103.6 312.871 103.558 313.43 103.537C314.599 103.495 314.415 103.555 314.905 103.542C314.949 103.541 314.794 103.505 315.639 103.475C318.323 103.38 315.629 103.504 315.522 103.513C315.387 103.524 316.313 103.665 314.026 103.666C314.793 103.664 314.873 103.736 314.959 103.735C315.037 103.735 316.365 103.691 316.438 103.688C317.088 103.648 316.515 103.611 316.641 103.599C316.746 103.589 318.343 103.619 318.715 103.461C319.48 103.586 318.278 103.595 316.996 103.646C316.812 103.678 318.218 103.675 318.292 103.674C320.104 103.637 319.1 103.542 319.496 103.461C319.705 103.418 320.449 103.483 319.762 103.393C321.415 103.351 320.415 103.43 320.521 103.437C320.682 103.447 321.261 103.407 321.333 103.41C321.439 103.414 321.071 103.456 321.489 103.462C321.56 103.463 322.233 103.39 321.362 103.375C322.525 103.365 322.429 103.314 322.824 103.414C323.622 103.202 323.406 103.525 323.721 103.532C324.558 103.551 324.314 103.396 324.358 103.388C324.664 103.334 326.98 103.364 327.557 103.338C327.331 103.453 325.715 103.355 325.356 103.382C324.157 103.468 327.047 103.421 326.178 103.573C326.544 103.53 326.91 103.488 327.276 103.445C327.948 103.533 326.996 103.58 328.803 103.534C329.098 103.452 327.526 103.555 327.841 103.49C328.028 103.452 329.074 103.437 329.095 103.418C329.115 103.394 328.168 103.427 328.317 103.391C328.644 103.309 332.095 103.369 329.468 103.423C330.201 103.418 330.579 103.571 331.214 103.521C331.623 103.49 329.315 103.279 332.779 103.313ZM442.281 112.553C442.271 112.532 443.894 112.671 444.296 112.698C443.868 112.678 442.898 112.603 442.281 112.553ZM215.698 112.14C214.59 112.288 215.637 112.162 215.422 112.195C215.248 112.222 214.597 112.29 214.977 112.26C214.479 112.302 212.31 112.555 212.205 112.565H212.195C212.185 112.561 212.339 112.522 212.699 112.483C213.971 112.348 213.056 112.473 215.698 112.14ZM217.812 112.21C218.264 112.184 215.822 112.44 215.373 112.47C215.863 112.413 216.937 112.315 217.379 112.267C217.43 112.261 217.146 112.25 217.812 112.21ZM437.937 112.36C437.062 112.281 439.365 112.432 439.408 112.438C439.439 112.445 438.396 112.401 437.937 112.36ZM215.936 112.1C215.755 112.13 213.69 112.373 213.729 112.358C213.776 112.343 215.613 112.137 215.936 112.1ZM219.236 112.206C219.515 112.153 218.957 112.215 218.777 112.227C218.613 112.237 218.504 112.232 218.144 112.274C218.508 112.251 218.873 112.228 219.236 112.206ZM433.005 111.989C432.264 111.911 435.694 112.17 435.798 112.182C435.85 112.188 435.884 112.192 435.903 112.195C436.031 112.197 436.685 112.243 436.759 112.267C436.563 112.251 436.029 112.215 435.966 112.208C435.939 112.205 435.919 112.203 435.905 112.201C435.669 112.2 433.154 112.005 433.005 111.989ZM224.235 112.208C224.303 112.193 223.616 112.237 223.463 112.253C223.224 112.277 224.121 112.231 224.235 112.208ZM442.873 111.66C442.817 111.655 443.107 111.716 442.771 111.685C443.422 111.746 446.401 112.115 446.565 112.133C446.686 112.146 445.78 112.011 447.205 112.199H447.207C446.167 112.034 444.758 111.906 444.604 111.888C444.451 111.868 444.691 111.879 444.657 111.874C444.572 111.862 442.952 111.668 442.873 111.66ZM436.304 112.076C436.664 112.104 437.172 112.144 437.266 112.166C437.023 112.145 436.296 112.087 436.304 112.076ZM444.669 111.939C445.189 112.001 445.996 112.104 446.282 112.125C445.759 112.062 444.954 111.959 444.669 111.939ZM440.652 111.488C441.954 111.656 441.842 111.599 442.212 111.645C442.721 111.707 442.678 111.737 442.574 111.736C442.994 111.763 444.775 111.971 445.813 112.091C444.902 111.975 443.433 111.787 442.544 111.676C442.29 111.644 442.042 111.625 441.826 111.599C441.508 111.56 441.744 111.575 441.766 111.575L441.764 111.574C441.316 111.513 440.712 111.476 441.691 111.594C441.356 111.559 440.998 111.523 440.652 111.488ZM232.794 111.829C232.481 111.876 231.685 111.91 231.215 111.948C230.567 112.002 229.465 112.168 229.934 112.044C230.891 111.972 231.845 111.9 232.794 111.829ZM230.003 111.891C229.936 111.893 228.649 111.988 228.791 111.987C229.061 111.986 230.192 111.885 230.003 111.891ZM431.816 111.895C431.854 111.896 432.586 111.95 432.616 111.953C433.214 112.017 431.14 111.866 431.816 111.895ZM442.532 111.742C441.914 111.649 442.125 111.747 442.202 111.759C442.52 111.806 443.62 111.902 443.846 111.922C442.201 111.745 442.823 111.786 442.532 111.742ZM433.074 111.859C434.034 111.925 433.147 111.838 434.102 111.917C433.869 111.921 433.723 111.913 433.074 111.859ZM442.714 111.555C442.92 111.57 445.221 111.855 445.315 111.87C446.005 111.973 442.892 111.58 442.714 111.555ZM443.41 111.604C443.705 111.626 445.953 111.927 445.357 111.861C445.259 111.85 442.975 111.569 443.41 111.604ZM443.21 111.723C442.599 111.64 444.167 111.827 444.22 111.835C444.625 111.894 443.484 111.76 443.21 111.723ZM232.183 111.759C231.752 111.787 230.893 111.84 231.158 111.843C231.195 111.842 232.166 111.772 232.183 111.759ZM232.41 111.728C232.203 111.714 231.484 111.782 231.022 111.813C231.187 111.826 231.961 111.753 232.41 111.728ZM231.878 111.724C231.715 111.711 230.939 111.786 230.488 111.812C230.623 111.821 231.518 111.752 231.878 111.724ZM234.626 111.688C234.956 111.681 233.982 111.762 233.608 111.77C233.601 111.756 234.572 111.69 234.626 111.688ZM442.521 111.542C442.858 111.567 443.077 111.614 443.119 111.619C443.535 111.673 444.401 111.778 444.211 111.77C443.472 111.671 441.848 111.492 442.521 111.542ZM427.245 111.555C428.108 111.572 428.255 111.655 428.181 111.652C427.243 111.618 427.851 111.606 427.828 111.602C427.763 111.593 427.098 111.571 427.245 111.555ZM429.444 111.596C429.104 111.566 429.509 111.554 429.883 111.604C430 111.62 429.635 111.612 429.444 111.596ZM442.757 111.544C442.635 111.52 442.936 111.533 443.203 111.579C443.317 111.599 443.1 111.587 442.757 111.544ZM440.061 111.336C440.622 111.42 441.787 111.538 441.488 111.496C441.359 111.478 440.163 111.333 440.061 111.336ZM223.788 110.984C222.505 111.161 223.674 111.012 223.712 111.021C223.86 111.061 221.997 111.197 221.352 111.287C221.262 111.299 221.926 111.237 221.697 111.27C220.932 111.373 218.681 111.569 221.114 111.286L221.113 111.287C221.763 111.212 221.362 111.274 221.393 111.271C222.776 111.125 222.406 111.138 222.621 111.108C223.082 111.045 223.013 111.093 223.788 110.984ZM438.461 111.233C438.657 111.262 440.731 111.491 439.896 111.382C439.829 111.373 438.367 111.212 438.461 111.233ZM423.264 111.271C422.761 111.218 423.943 111.294 424.292 111.326C424.29 111.342 423.34 111.278 423.264 111.271ZM435.062 110.763C434.236 110.752 437.322 111.022 437.694 111.131C434.336 110.742 439.908 111.447 437.571 111.084C439.503 111.341 438.209 111.146 438.507 111.168C438.828 111.193 439.924 111.335 439.873 111.307H439.871C439.198 111.229 438.526 111.152 437.856 111.075C438.507 111.201 437.14 111.029 436.683 110.933C436.492 110.921 436.301 110.91 436.11 110.899C435.804 110.796 435.67 110.889 435.062 110.763ZM434.916 110.623C435.189 110.636 438.889 111.096 439.494 111.17C438.955 111.133 438.526 111.059 437.809 110.975C437.616 110.952 437.665 110.97 437.645 110.968C437.31 110.928 437.561 110.944 437.355 110.919C437.222 110.902 434.526 110.602 434.916 110.623ZM421.132 111.04C421.9 111.096 421.744 111.029 422.23 111.089C422.31 111.099 422.556 111.231 421.715 111.13C421.563 111.112 422.16 111.125 421.132 111.04ZM245.353 111.034C245.341 111.055 244.628 111.083 244.356 111.103C244.427 111.076 245.076 111.046 245.353 111.034ZM223.686 110.952C223.744 110.947 222.9 111.088 222.658 111.089C222.474 111.09 223.533 110.966 223.686 110.952ZM434.71 110.895C435.049 110.929 435.967 111.043 436.101 111.043C435.789 111.005 434.866 110.896 434.71 110.895ZM246.983 110.907C247.042 110.907 247.475 110.964 246.606 110.992C245.964 111.013 246.456 110.909 246.983 110.907ZM417.982 110.841C418.526 110.876 419.043 110.919 419.543 110.963C419.435 110.975 418.04 110.86 417.982 110.841ZM435.4 110.922C434.917 110.848 434.795 110.894 435.356 110.938C435.378 110.94 435.418 110.925 435.4 110.922ZM420.53 110.903C420.5 110.9 419.597 110.825 419.719 110.858C419.896 110.907 420.783 110.934 420.53 110.903ZM417.703 110.716C417.423 110.682 409.41 110.127 414.78 110.547C414.949 110.56 414.721 110.518 415.407 110.569C415.453 110.573 415.474 110.596 415.614 110.606C415.935 110.63 417.671 110.762 418.001 110.769C418.004 110.772 418.026 110.778 418.071 110.784C418.486 110.841 419.791 110.846 419.554 110.82C419.245 110.787 418.259 110.748 418.043 110.761C418.004 110.753 417.897 110.738 417.701 110.716H417.703ZM434.604 110.738C433.936 110.641 434.246 110.745 434.745 110.783C434.773 110.785 434.636 110.743 434.604 110.738ZM434.582 110.554C434.98 110.562 436.809 110.809 435.554 110.677C435.433 110.664 434.929 110.587 434.582 110.554ZM432.668 110.599C432.346 110.538 431.971 110.56 432.495 110.618C432.65 110.635 432.701 110.605 432.668 110.599ZM430.083 110.085C430.588 110.154 434.299 110.582 434.444 110.595C434.492 110.599 434.527 110.584 434.505 110.581C434.343 110.555 430.601 110.134 430.083 110.085ZM252.523 110.559C252.564 110.561 252.59 110.566 252.595 110.577C252.488 110.571 252.478 110.565 252.523 110.559ZM411.713 110.475C411.636 110.486 412.649 110.561 412.706 110.537C412.477 110.524 411.776 110.466 411.713 110.475ZM254.768 110.447C255.543 110.365 253.96 110.459 253.977 110.484C253.985 110.494 254.737 110.45 254.768 110.447ZM411.432 110.368C411.349 110.388 412.372 110.448 412.403 110.447C412.581 110.438 411.694 110.374 411.432 110.368ZM431.371 110.08C431.32 110.046 432.819 110.239 433.213 110.282C432.872 110.261 431.918 110.141 431.371 110.08ZM260.942 110.117C260.967 110.093 258.71 110.221 258.553 110.258C258.913 110.225 260.919 110.138 260.942 110.117ZM430.922 110.123C426.425 109.61 429.152 109.948 431.05 110.152C430.916 110.137 431.044 110.137 430.922 110.123ZM403.729 110.143C400.909 110.011 400.536 109.854 403.128 110.058C403.179 110.062 403.9 110.139 403.729 110.143ZM405.694 110.026C405.237 109.989 405.327 110.039 405.355 110.042C405.699 110.077 406.213 110.069 405.694 110.026ZM427.119 109.86C427.425 109.891 428.264 109.999 428.314 109.986C428.008 109.955 427.17 109.848 427.119 109.86ZM394.836 109.377C394.598 109.373 395.323 109.466 395.159 109.467C395.056 109.467 394.525 109.418 394.354 109.426C394.306 109.428 394.845 109.507 395.002 109.514C395.224 109.523 395.012 109.472 395.252 109.485C396.047 109.528 396.752 109.595 397.501 109.637C397.568 109.64 397.047 109.583 397.623 109.616C397.713 109.621 398.246 109.692 398.938 109.726C400.471 109.692 401.622 109.878 403.542 109.949C403.469 109.934 402.034 109.818 401.94 109.812C400.304 109.694 397.397 109.523 395.713 109.429C395.281 109.404 395.488 109.443 395.303 109.434C395.154 109.426 395.338 109.386 394.836 109.377ZM427.244 109.681C428.038 109.82 430.474 110.007 428.884 109.84C428.854 109.837 429.155 109.899 428.543 109.825C428.492 109.819 428.398 109.776 427.628 109.699C427.481 109.685 427.256 109.679 427.244 109.681ZM266.782 109.771C266.722 109.77 265.948 109.817 265.965 109.836C266.35 109.842 267.042 109.775 266.782 109.771ZM426.81 109.657C426.999 109.684 428.9 109.905 428.2 109.811C428.135 109.802 426.842 109.646 426.81 109.657ZM397.243 109.677C398.081 109.774 397.15 109.673 397.184 109.729C397.749 109.761 399.16 109.842 398.193 109.736C398.005 109.716 397.507 109.695 397.243 109.677ZM398.257 109.717C398.2 109.744 399.184 109.782 399.272 109.759C399.075 109.747 398.277 109.709 398.257 109.717ZM396.469 109.616C396.377 109.628 395.77 109.65 396.292 109.675C396.534 109.686 396.928 109.647 396.469 109.616ZM396.055 109.604C395.941 109.59 392.845 109.391 393.027 109.47C393.299 109.475 396.801 109.698 396.055 109.604ZM271.595 109.507C271.044 109.454 269.954 109.671 270.828 109.611C270.913 109.605 271.618 109.51 271.595 109.507ZM394.42 109.551C394.12 109.53 393.914 109.574 393.964 109.581C394.195 109.614 394.76 109.6 394.42 109.551ZM272.095 109.485C271.393 109.524 271.908 109.589 272.341 109.53C272.365 109.526 272.142 109.483 272.095 109.485ZM272.993 109.445C272.922 109.445 274.011 109.256 272.424 109.436C273.268 109.41 272.395 109.467 272.393 109.479C272.433 109.51 273.857 109.408 274.172 109.408C274.413 109.336 273.229 109.448 272.995 109.445H272.993ZM422.283 109.111C422.36 109.137 423.968 109.324 424.046 109.33C424.816 109.389 422.406 109.117 422.283 109.111ZM388.594 109.287C388.5 109.311 389.475 109.349 389.6 109.32C389.333 109.302 388.67 109.268 388.594 109.287ZM279.219 109.112C279.424 109.117 278.693 109.188 278.767 109.189C278.92 109.193 279.042 109.192 279.139 109.188C278.489 109.229 277.81 109.266 277.742 109.261C277.432 109.234 278.343 109.209 278.369 109.206C278.411 109.198 277.814 109.081 279.219 109.112ZM391.453 109.161C391.353 109.15 390.06 109.119 390.592 109.184C390.961 109.229 391.024 109.18 391.111 109.185C391.21 109.19 393.289 109.365 391.453 109.161ZM279.914 109.085C280.881 109.062 280.173 109.121 279.314 109.177C279.586 109.149 279.589 109.093 279.914 109.085ZM276.147 109.106C276.166 109.107 276.131 109.148 276.109 109.151C275.55 109.214 275.659 109.089 276.147 109.106ZM277.655 109.139C277.614 109.114 278.765 109.035 278.849 109.097C278.604 109.103 277.691 109.153 277.655 109.139ZM387.094 109.107C386.995 109.097 384.643 108.98 385.454 109.064C385.7 109.089 387.849 109.189 387.094 109.107ZM421.457 108.909C421.048 108.845 422.303 108.966 422.675 109.029C422.852 109.08 421.513 108.917 421.457 108.909ZM282.057 108.941C281.782 108.99 280.862 109.013 280.458 109.018C280.737 108.961 281.603 108.954 282.057 108.941ZM379.394 108.866C379.129 108.784 380.018 108.812 380.601 108.866C380.734 108.879 381.212 108.97 380.658 108.96C380.681 108.876 379.819 108.806 379.394 108.866ZM286.357 108.753C286.968 108.739 286.156 108.82 286.209 108.821C286.284 108.823 287.22 108.755 287.194 108.795C287.174 108.825 286.164 108.845 285.913 108.861C285.593 108.882 285.984 108.914 285.447 108.926C285.11 108.933 285.292 108.842 285.221 108.841C285.157 108.84 283.985 108.936 284.443 108.832L284.441 108.831C284.575 108.801 285.435 108.779 285.632 108.781C285.665 108.782 285.524 108.851 285.909 108.831C286.219 108.815 285.753 108.767 286.357 108.753ZM276.397 108.817C276.339 108.823 276.72 108.875 276.949 108.836C277.127 108.805 276.616 108.795 276.397 108.817ZM280.27 108.784C280.218 108.75 279.236 108.84 279.446 108.848C279.58 108.852 280.296 108.806 280.27 108.784ZM278.166 108.768C278.573 108.723 277.629 108.694 277.2 108.773C276.981 108.814 278.096 108.775 278.166 108.768ZM277.124 108.637C276.909 108.631 274.77 108.759 275.097 108.788C275.215 108.798 276.446 108.694 276.504 108.694C276.59 108.695 276.201 108.766 276.856 108.723C276.818 108.707 277.196 108.638 277.124 108.637ZM377.331 108.721C375.454 108.688 375.907 108.475 378.346 108.656C378.269 108.663 378.191 108.67 378.114 108.677C380.937 108.832 378.306 108.7 377.615 108.685C377.353 108.678 377.57 108.725 377.333 108.721H377.331ZM378.744 108.675C378.943 108.644 379.555 108.683 379.97 108.704C379.875 108.729 379.039 108.685 378.744 108.675ZM284.062 108.604C283.944 108.592 280.718 108.729 282.554 108.693C282.665 108.691 284.422 108.635 284.062 108.604ZM374.896 108.574C375 108.574 375.783 108.638 376.066 108.645C375.667 108.684 374.204 108.58 374.896 108.574ZM278.926 108.556C278.169 108.526 278.007 108.659 278.573 108.631C278.794 108.62 279.032 108.56 278.926 108.556ZM279.555 108.582C278.793 108.53 279.159 108.624 279.829 108.621C280.029 108.571 279.68 108.59 279.555 108.582ZM289.037 108.552C289.557 108.545 289.05 108.615 288.704 108.61C288.675 108.609 288.579 108.558 289.037 108.552ZM283.956 108.5C283.585 108.495 282.646 108.577 282.932 108.586C283.108 108.591 284.384 108.506 283.956 108.5ZM372.991 108.506C373.537 108.527 372.939 108.578 372.648 108.54C372.541 108.526 372.853 108.5 372.991 108.506ZM295.426 108.456C295.234 108.503 294.621 108.511 294.206 108.522C294.398 108.475 295.012 108.467 295.426 108.456ZM370.123 108.395C368.325 108.161 371.767 108.395 372.765 108.413C371.798 108.445 370.548 108.389 372.247 108.522C369.76 108.444 370.796 108.416 370.698 108.406C370.581 108.396 370.2 108.404 370.123 108.395ZM291.21 108.413C291.298 108.41 293.306 108.319 292.542 108.408C292.406 108.423 289.541 108.506 289.166 108.516C289.019 108.457 290.247 108.471 290.544 108.453C290.596 108.45 290.628 108.394 290.917 108.379C291.026 108.373 291.172 108.414 291.21 108.413ZM282.492 108.419C282.567 108.391 282.224 108.418 281.986 108.419H281.988C281.719 108.419 281.001 108.436 280.508 108.502C281.171 108.474 281.832 108.446 282.492 108.419ZM295.665 108.399C295.644 108.431 294.763 108.465 294.645 108.46C294.466 108.451 295.386 108.394 295.665 108.399ZM371.646 108.281C371.867 108.277 372.381 108.337 372.199 108.354C371.965 108.377 371.59 108.283 371.646 108.281ZM368.195 108.218C367.621 108.14 369.969 108.157 370.464 108.213C370.48 108.248 368.283 108.228 368.195 108.218ZM401.471 106.829C401.308 106.809 401.399 106.679 402.072 106.795C402.16 106.81 401.742 106.807 401.814 106.822C401.865 106.832 403.316 106.986 403.385 106.989C403.457 106.992 403.376 106.941 403.449 106.943C403.532 106.946 404.424 107.069 404.894 107.114C405.777 107.2 405.878 107.175 405.95 107.182C406.162 107.202 406.517 107.262 406.948 107.304C409.135 107.516 412.429 107.828 414.143 108.075C412.613 107.888 411.173 107.768 409.651 107.625C410.105 107.6 407.393 107.455 408.979 107.531C408.229 107.469 402.031 106.891 401.473 106.829H401.471ZM296.027 107.944C296.286 107.969 295.087 108.043 294.81 108.013C294.472 107.975 295.971 107.94 296.027 107.944ZM300.295 107.712C300.129 107.71 297.366 107.797 296.928 107.786C298.118 107.915 297.988 107.79 298.091 107.787C298.311 107.782 298.833 107.81 299.256 107.789C298.772 107.824 298.291 107.859 297.813 107.894C298.18 107.892 301.511 107.852 301.577 107.823C301.674 107.78 300.641 107.824 300.604 107.822C300.56 107.819 300.392 107.713 300.295 107.712ZM355.032 107.8C355.522 107.794 356.113 107.828 356.626 107.84C356.415 107.861 355.239 107.84 355.032 107.8ZM356.667 107.797C356.963 107.786 357.499 107.819 357.865 107.826C357.802 107.854 356.796 107.83 356.667 107.797ZM301.801 107.793C301.266 107.832 302.595 107.835 302.778 107.787C302.532 107.791 301.991 107.779 301.801 107.793ZM304.145 107.783C303.876 107.747 303.127 107.771 303.352 107.809C303.38 107.812 304.037 107.818 304.145 107.783ZM306.153 107.717C305.944 107.716 305.68 107.791 305.702 107.794C305.917 107.814 306.507 107.746 306.153 107.717ZM311.052 107.738C311.312 107.693 313.031 107.692 313.422 107.726C313.046 107.79 310.73 107.794 311.052 107.738ZM308.722 107.705C308.388 107.67 307.455 107.746 307.697 107.757C307.867 107.764 309.056 107.741 308.722 107.705ZM315.392 107.739C315.81 107.725 316.232 107.699 316.373 107.747C316.107 107.743 315.346 107.775 315.392 107.739ZM308.179 107.646C308.164 107.678 309.292 107.665 309.343 107.66C309.997 107.589 308.652 107.632 308.179 107.646ZM307.606 107.621C307.552 107.619 306.393 107.631 306.398 107.66C306.707 107.674 308.259 107.644 307.606 107.621ZM334.99 107.596C334.901 107.625 333.645 107.658 333.58 107.609C333.494 107.542 334.752 107.589 334.99 107.596ZM321.535 107.467C321.435 107.46 320.523 107.501 320.5 107.524C321.025 107.543 321.989 107.499 321.535 107.467ZM336.005 107.452C335.977 107.455 335.949 107.457 335.921 107.46C335.949 107.461 335.977 107.462 336.005 107.463C336.574 107.48 337.229 107.474 337.24 107.439C337.252 107.445 337.281 107.452 337.328 107.458C337.377 107.464 338.004 107.451 338.277 107.466C339.165 107.513 337.224 107.508 336.005 107.486C335.086 107.47 334.578 107.441 336.006 107.407C336.168 107.403 336.356 107.399 336.571 107.396C336.383 107.414 336.193 107.433 336.005 107.452ZM323.341 107.443C323.157 107.432 322.58 107.449 322.519 107.48C322.807 107.493 323.766 107.47 323.341 107.443ZM316.498 107.436C316.77 107.445 316.848 107.49 316.974 107.478C317.016 107.473 317.023 107.429 317.169 107.415C316.946 107.422 316.722 107.429 316.498 107.436ZM320.024 107.367C318.331 107.26 319.256 107.482 319.556 107.458C319.599 107.454 320.065 107.37 320.024 107.367ZM317.35 107.41C317.755 107.409 318.521 107.442 318.436 107.378H318.434C318.073 107.388 317.711 107.399 317.35 107.41ZM258.441 107.002C258.776 106.931 260.266 106.839 260.003 106.88C259.941 106.889 258.321 107.034 258.441 107.002ZM261.928 106.765C261.806 106.767 261.001 106.83 260.757 106.853C260.5 106.919 262.441 106.755 261.928 106.765ZM399.28 106.702C398.942 106.662 397.504 106.54 398.062 106.616C398.149 106.628 399.25 106.725 399.28 106.702ZM395.014 106.228C394.073 106.2 398.009 106.572 396.979 106.42C396.897 106.408 395.108 106.231 395.014 106.228ZM269.519 106.118C269.778 106.083 268.727 106.137 268.733 106.173C268.754 106.182 269.478 106.123 269.519 106.118ZM387.491 105.538C387.544 105.51 388.393 105.604 388.697 105.623C388.643 105.65 387.804 105.557 387.491 105.538ZM381.536 105.253C381.583 105.207 380.172 105.139 380.726 105.217C380.867 105.236 381.512 105.267 381.536 105.253ZM381.604 104.982C381.892 104.956 382.699 105.037 383.22 105.075C382.98 105.097 382.045 105.014 381.604 104.982ZM283.997 104.969C283.78 104.985 282.816 105.033 282.804 105.05C282.8 105.076 283.889 105.02 283.997 104.969ZM373.742 104.741C373.46 104.72 373.24 104.788 373.271 104.794C373.576 104.847 374.021 104.789 373.742 104.741ZM371.473 104.683C371.069 104.68 371.758 104.796 372.254 104.747C372.004 104.739 371.517 104.683 371.473 104.683ZM371.256 104.687C370.58 104.591 370.616 104.702 371.114 104.728C371.289 104.736 371.277 104.69 371.256 104.687ZM373.943 104.54C373.842 104.47 375.112 104.594 375.558 104.614C375.658 104.683 374.387 104.558 373.943 104.54ZM365.433 104.409C365.863 104.422 366.971 104.52 366.859 104.451C366.507 104.442 365.596 104.385 365.433 104.409ZM371.542 104.388C371.621 104.364 372.469 104.421 372.77 104.432C372.57 104.461 371.957 104.414 371.542 104.388ZM365.853 104.057C371.253 104.279 370.062 104.354 365.528 104.073C365.523 104.031 365.51 104.043 365.853 104.057ZM352.611 103.892C352.59 103.854 351.692 103.846 351.812 103.873C351.854 103.882 352.621 103.921 352.611 103.892ZM345.357 103.758C345.289 103.752 344.505 103.746 344.532 103.773C344.823 103.794 345.796 103.794 345.357 103.758ZM337.463 103.736C338.01 103.697 336.743 103.639 336.507 103.671C336.39 103.687 337.222 103.753 337.463 103.736ZM356.312 103.671C356.188 103.6 357.81 103.684 357.936 103.704C358.434 103.781 356.449 103.661 356.312 103.671ZM328.567 103.553C327.917 103.565 327.232 103.747 328.041 103.714C328.127 103.71 328.641 103.577 328.567 103.553ZM334.137 103.611C333.6 103.54 332.683 103.547 332.909 103.639C333.922 103.633 332.785 103.556 334.137 103.611ZM325.997 103.521C326.394 103.453 324.349 103.489 324.175 103.565C324.446 103.572 325.948 103.528 325.997 103.521ZM336.832 103.27H336.835C337.127 103.29 336.794 103.318 336.848 103.329C336.878 103.334 337.772 103.401 337.021 103.406C335.867 103.415 336.912 103.313 336.298 103.309C336.277 103.308 336.167 103.313 336.023 103.32C335.661 103.339 335.078 103.375 335.125 103.386C335.135 103.387 335.481 103.375 335.54 103.381C335.757 103.405 335.653 103.443 335.683 103.445C335.708 103.447 335.838 103.444 336.023 103.44C336.594 103.429 337.691 103.409 337.893 103.454C337.942 103.466 336.903 103.478 336.023 103.486C335.419 103.492 334.889 103.495 334.84 103.491C334.765 103.485 334.797 103.377 334.72 103.366C334.678 103.361 333.464 103.398 333.306 103.389C333.26 103.386 333.225 103.383 333.199 103.381C333.382 103.414 332.287 103.411 332.316 103.374C332.336 103.359 333.092 103.367 333.12 103.37C333.132 103.371 333.143 103.373 333.152 103.374C332.996 103.332 335.561 103.339 335.008 103.277C335.751 103.246 334.902 103.365 335.461 103.335C335.582 103.328 335.7 103.276 336.024 103.256C336.211 103.244 336.467 103.244 336.832 103.27ZM339.036 103.291C338.959 103.302 338.882 103.313 338.806 103.323C340.108 103.307 341.609 103.378 343.108 103.4C343.489 103.406 343.052 103.331 343.551 103.357C343.95 103.379 344.391 103.45 344.174 103.461C344.118 103.463 343.307 103.409 342.9 103.407C341.701 103.403 342 103.467 341.932 103.468C341.854 103.468 341.098 103.417 340.685 103.414C339.646 103.407 339.171 103.438 337.753 103.38C338.572 103.347 338.124 103.258 339.036 103.291ZM436.537 68.4697C437.147 68.4697 437.729 68.6765 438.285 69.0889C438.841 69.5012 439.281 70.0567 439.604 70.7559C439.944 71.4371 440.114 72.1543 440.114 72.9072C440.114 73.6781 439.558 75.6501 438.446 78.8232C438.213 79.4866 438.035 80.0073 437.909 80.3838C437.784 80.7601 437.667 81.0827 437.56 81.3516L437.693 81.459C437.944 81.208 438.169 80.9843 438.366 80.7871C438.563 80.5899 438.779 80.3831 439.012 80.168C439.263 79.935 439.496 79.7196 439.711 79.5225C440.195 79.0561 441.414 77.8284 443.368 75.8389C444.659 74.4046 445.672 73.4271 446.407 72.9072C447.142 72.3695 447.85 72.1006 448.531 72.1006C449.643 72.1006 450.486 72.4859 451.06 73.2568C451.651 74.0098 451.946 75.1304 451.946 76.6182C451.946 77.5325 451.803 78.9761 451.517 80.9482C451.266 83.1713 451.086 84.9195 450.979 86.1924C450.889 87.4469 450.844 88.3251 450.844 88.8271C450.844 89.2035 450.862 89.6879 450.897 90.2793C450.951 90.853 451.032 91.4724 451.14 92.1357C451.247 92.799 451.391 93.5342 451.57 94.3408C451.785 95.3267 451.928 96.0976 452 96.6533C451.857 97.2987 451.382 97.8458 450.575 98.2939C449.786 98.7421 448.925 98.9658 447.993 98.9658C446.523 98.9657 445.142 98.3022 443.852 96.9756C443.278 96.3662 442.83 95.7475 442.508 95.1201C442.203 94.5106 441.978 93.7849 441.835 92.9424C441.709 92.0818 441.646 90.9521 441.646 89.5537C441.646 88.6394 441.755 86.7474 441.97 83.8789L441.862 83.7715L441.378 84.4443L434.036 91.9736C433.086 92.9238 432.315 93.5789 431.724 93.9375C431.15 94.278 430.514 94.4482 429.814 94.4482C428.721 94.4482 427.797 94.045 427.044 93.2383C426.309 92.4136 425.941 91.4089 425.941 90.2256C425.941 89.4907 426.05 88.6933 426.265 87.833C426.498 86.9546 426.946 85.6546 427.609 83.9336C427.735 83.575 427.851 83.2695 427.959 83.0186C428.084 82.7498 428.183 82.5259 428.255 82.3467L428.146 82.2393C426.408 84.0678 424.704 85.9948 423.037 88.0205C421.639 89.6877 420.528 90.9341 419.703 91.7588C418.878 92.5834 418.134 93.2019 417.471 93.6143C416.807 94.0266 416.215 94.2334 415.695 94.2334C414.53 94.2333 413.607 93.7756 412.926 92.8613C412.245 91.947 411.904 90.7007 411.904 89.123C411.904 87.133 412.764 83.9147 414.485 79.4688C416.027 75.5248 417.22 72.8808 418.062 71.5361C419.3 69.6716 420.716 68.7393 422.312 68.7393C423.28 68.7393 424.078 68.9724 424.705 69.4385C425.35 69.8866 425.673 70.4781 425.673 71.2129C425.673 72.5575 425.161 74.6102 424.14 77.3711C423.745 78.393 423.342 79.55 422.93 80.8408L423.037 80.9482C423.7 80.2132 424.767 78.949 426.237 77.1562C428.765 74.0368 430.675 71.9127 431.966 70.7832C433.633 69.2414 435.157 68.4698 436.537 68.4697ZM321.339 68.0127C322.181 68.0127 322.808 68.1745 323.221 68.4971C323.633 68.8018 323.911 69.3216 324.055 70.0566C324.216 70.7917 324.315 72.0022 324.351 73.6875C324.351 75.0321 324.503 76.9149 324.808 79.335C325.13 81.7371 325.48 83.8794 325.856 85.7617C325.982 86.4071 326.251 87.6355 326.663 89.4463H326.798C327.192 88.263 327.461 87.3391 327.604 86.6758C328.124 84.399 328.385 81.1184 328.385 76.834V75.623C328.385 74.3505 328.501 73.3378 328.734 72.585C328.967 71.8142 329.379 71.1147 329.971 70.4873C330.598 69.8598 331.325 69.3485 332.149 68.9541C332.974 68.5418 333.701 68.3359 334.328 68.3359C335.063 68.336 335.583 68.6313 335.888 69.2227C336.21 69.7964 336.371 70.7381 336.371 72.0469C336.371 74.9871 335.762 78.6536 334.543 83.0459C333.485 86.7928 332.096 90.2441 330.375 93.3994C329.819 94.3855 329.281 95.1918 328.761 95.8193C328.241 96.4468 327.703 96.8867 327.147 97.1377C326.592 97.4065 325.955 97.541 325.238 97.541C322.693 97.541 320.604 95.9092 318.973 92.6465C318.489 91.6425 318.058 90.5034 317.682 89.2305C317.305 87.9576 316.982 86.4875 316.713 84.8203C316.623 84.5333 316.552 83.9418 316.498 83.0459H316.363L315.207 85.4658C314.149 87.6351 313.181 89.4011 312.303 90.7637C311.424 92.1262 310.608 93.0943 309.855 93.668C309.103 94.2237 308.305 94.502 307.462 94.502C306.602 94.5019 305.848 94.1344 305.203 93.3994C303.948 91.9293 302.899 89.1415 302.057 85.0361C301.393 81.7194 301.062 78.8594 301.062 76.457C301.062 74.5746 301.277 73.0774 301.707 71.9658C302.137 70.8364 302.81 70.0121 303.725 69.4922C304.639 68.9544 305.831 68.6856 307.301 68.6855C308.072 68.6855 308.627 68.82 308.968 69.0889C309.326 69.3578 309.569 69.8954 309.694 70.7021C309.82 71.5089 309.883 72.728 309.883 74.3594C309.883 77.3353 310.026 80.141 310.312 82.7764C310.348 82.9198 310.439 83.6371 310.582 84.9277H310.716C310.841 84.6592 310.94 84.4445 311.012 84.2832C311.083 84.1218 311.156 83.9602 311.228 83.7988C311.299 83.6375 311.361 83.4937 311.415 83.3682C311.487 83.2247 311.577 83.0273 311.685 82.7764C312.635 80.6251 313.629 78.1511 314.669 75.3545C315.87 72.1456 316.695 70.1915 317.144 69.4922C317.269 69.3309 317.439 69.1513 317.654 68.9541C318.515 68.3266 319.743 68.0127 321.339 68.0127ZM127.071 64.1074C129.972 64.1074 132.506 64.7501 134.672 66.0352C136.838 67.2835 138.509 69.0649 139.684 71.3779C140.895 73.6543 141.501 76.3528 141.501 79.4736C141.501 82.5578 140.895 85.2572 139.684 87.5703C138.509 89.8834 136.838 91.6827 134.672 92.9678C132.506 94.2161 129.972 94.8398 127.071 94.8398C124.171 94.8398 121.619 94.2161 119.416 92.9678C117.25 91.6827 115.56 89.8835 114.349 87.5703C113.174 85.2572 112.586 82.5578 112.586 79.4736C112.586 76.3528 113.174 73.6544 114.349 71.3779C115.56 69.0648 117.25 67.2835 119.416 66.0352C121.619 64.7502 124.171 64.1074 127.071 64.1074ZM153.33 81.9521C153.33 84.412 153.733 86.2294 154.541 87.4043C155.386 88.5425 156.653 89.1123 158.342 89.1123C160.251 89.1122 161.72 88.4885 162.748 87.2402C163.813 85.9552 164.345 84.0999 164.345 81.6768V64.7686H171.395V94.1787H164.95L164.852 89.3623C164.296 90.7186 163.523 91.8295 162.527 92.6924C160.875 94.1242 158.69 94.8398 155.974 94.8398C153 94.8398 150.631 93.8669 148.868 91.9209C147.143 89.9382 146.28 87.2026 146.28 83.7148V64.7686H153.33V81.9521ZM243.505 67.7441C244.33 67.7441 245.1 67.8786 245.817 68.1475C246.552 68.3984 247.127 68.7744 247.539 69.2764C247.916 69.6529 248.193 70.1557 248.372 70.7832C248.569 71.3928 248.695 72.3338 248.749 73.6064C248.821 74.8614 248.856 76.6003 248.856 78.8232V85.8154H248.964C249.304 85.0447 249.583 84.4533 249.798 84.041C250.372 82.9116 251.483 80.5269 253.132 76.8877C253.472 76.1168 254.118 74.6824 255.068 72.585L255.633 71.4277L256.063 70.5947C256.512 69.6627 256.879 69.0441 257.166 68.7393C257.471 68.4345 257.874 68.2823 258.376 68.2822C259.846 68.2822 260.581 69.9401 260.581 73.2568C260.581 74.2249 260.51 75.0586 260.366 75.7578C260.223 76.4568 259.981 77.1291 259.641 77.7744C259.228 78.635 258.672 79.6218 257.973 80.7334C257.274 81.8269 256.475 82.9917 255.579 84.2285C254.701 85.4476 253.76 86.6761 252.756 87.9131C250.963 90.1899 249.448 91.8573 248.211 92.915C246.974 93.9727 245.934 94.5018 245.092 94.502C243.532 94.502 242.42 93.5517 241.757 91.6514C241.291 90.4502 240.86 88.998 240.466 87.2949C240.089 85.5919 239.793 83.8707 239.578 82.1318C239.363 80.3749 239.256 78.6803 239.256 77.0488C239.256 74.7899 239.453 72.8895 239.848 71.3477C240.26 69.7881 240.816 68.7664 241.515 68.2822C242.142 67.9237 242.806 67.7441 243.505 67.7441ZM297.312 68.1738C298.854 68.1739 299.625 69.6984 299.625 72.7461C299.625 74.4134 299.445 76.0272 299.087 77.5869C298.728 79.1465 298.272 80.4193 297.716 81.4053C297.178 82.3911 296.64 82.8846 296.103 82.8848C295.511 82.8848 295.215 81.7635 295.215 79.5225C295.215 78.3394 295.143 77.4162 295 76.7529C294.875 76.0717 294.668 75.5425 294.381 75.166C293.843 76.17 293.493 78.4651 293.332 82.0508C293.207 84.1299 293.117 85.4385 293.063 85.9766L292.956 86.5146C292.956 86.8194 292.92 87.2593 292.849 87.833C292.777 88.7113 292.678 89.4287 292.553 89.9844C292.427 90.54 292.238 91.0064 291.987 91.3828C291.736 91.7412 291.396 92.1269 290.966 92.5391C289.657 93.7401 288.339 94.3408 287.013 94.3408C285.937 94.3408 285.139 93.9461 284.619 93.1572C284.117 92.3684 283.866 91.0956 283.866 89.3389C283.866 87.9405 284.018 86.2186 284.323 84.1748C284.646 82.1134 285.031 80.267 285.479 78.6357L285.695 77.9365C285.695 77.829 285.749 77.6043 285.856 77.2637C286.52 74.8256 287.129 73.0237 287.685 71.8584C288.24 70.6751 288.913 69.7249 289.702 69.0078C290.401 68.4522 291.19 68.1738 292.068 68.1738C293.341 68.1738 294.112 68.9455 294.381 70.4873C294.632 70.2722 294.874 70.0212 295.107 69.7344C295.627 69.1069 296.031 68.6943 296.317 68.4971C296.604 68.2819 296.936 68.1738 297.312 68.1738ZM405.573 57.0674C406.541 57.0675 407.419 57.3729 408.208 57.9824C408.997 58.5741 409.607 59.4077 410.037 60.4834C410.467 61.559 410.683 62.751 410.683 64.0596C410.683 66.8743 410.126 69.6262 409.015 72.3154C407.921 75.0047 406.388 77.3355 404.416 79.3076C403.484 80.2577 402.588 81.0022 401.728 81.54C400.867 82.0778 400.114 82.3465 399.469 82.3467C398.841 82.3467 398.527 82.1042 398.527 81.6201C398.527 81.3511 398.761 80.8405 399.227 80.0879C399.854 79.1018 400.589 77.6131 401.432 75.623C401.503 75.4259 401.584 75.2199 401.674 75.0049C401.763 74.7718 401.871 74.4578 401.996 74.0635C402.713 72.0376 403.314 69.9219 403.798 67.7168C404.282 65.4938 404.524 63.7906 404.524 62.6074C404.524 62.2848 404.434 62.123 404.255 62.123C403.968 62.1234 403.466 62.7691 402.749 64.0596C402.032 65.3325 401.431 66.6323 400.947 67.959C399.907 70.8813 399.101 73.3108 398.527 75.2471C397.972 77.1654 397.586 78.7791 397.371 80.0879C397.156 81.3966 397.048 82.7323 397.048 84.0947C397.048 85.2599 397.174 86.1116 397.425 86.6494C397.694 87.1871 398.115 87.4561 398.688 87.4561C399.674 87.456 400.777 87.0256 401.996 86.165C403.215 85.2866 404.318 84.139 405.304 82.7227C406.074 81.6652 406.675 81.1369 407.105 81.1367C407.661 81.1367 407.939 81.5756 407.939 82.4541C407.939 84.3723 407.339 86.2456 406.138 88.0742C404.936 89.9029 403.386 91.3917 401.485 92.5391C399.603 93.6685 397.675 94.2334 395.703 94.2334C393.283 94.2333 391.311 93.471 389.787 91.9473C388.263 90.4234 387.501 88.4327 387.501 85.9766C387.501 83.9688 387.932 81.6205 388.792 78.9316C389.653 76.2246 390.8 73.5082 392.234 70.7832C393.686 68.0403 395.273 65.557 396.994 63.334C398.715 61.1109 400.418 59.4069 402.104 58.2236C403.143 57.4527 404.3 57.0674 405.573 57.0674ZM12.9424 86.1934L18.8359 64.7686H25.0039L30.9521 86.1934L36.6797 64.7686H43.8945L35.0283 94.1787H27.7578L21.9199 74.4629L16.1367 94.1787H8.86719L0 64.7686H7.21484L12.9424 86.1934ZM54.75 94.1787H47.7012V64.7686H54.75V94.1787ZM70.3008 64.7686H78.0664V70.2217H70.3008V85.0918C70.3008 86.4503 70.5952 87.4053 71.1826 87.9561C71.7701 88.4699 72.6883 88.7266 73.9365 88.7266H78.0664V94.1787H71.7881C68.8508 94.1787 66.6843 93.4991 65.2891 92.1406C63.9307 90.7821 63.251 88.6534 63.251 85.7529V70.2217H58.625V64.7686H63.251V57.8848H70.3008V64.7686ZM89.626 68.7139C89.8768 68.2163 90.1703 67.7641 90.5068 67.3574C91.388 66.2559 92.4717 65.4476 93.7568 64.9336C95.0418 64.383 96.4552 64.1074 97.9971 64.1074C100.163 64.1074 101.982 64.5854 103.45 65.54C104.955 66.4579 106.075 67.7614 106.81 69.4502C107.581 71.1391 107.966 73.0852 107.966 75.2881V94.1787H100.916V76.9961C100.916 74.6095 100.512 72.8283 99.7041 71.6533C98.8963 70.4418 97.6299 69.8359 95.9043 69.8359C93.9951 69.8359 92.4712 70.4597 91.333 71.708C90.1948 72.9564 89.626 74.7745 89.626 77.1611V94.1787H82.5762V55.0752H89.626V68.7139ZM187.49 64.7686H195.256V70.2217H187.49V85.0918C187.49 86.4503 187.784 87.4053 188.371 87.9561C188.959 88.47 189.877 88.7266 191.125 88.7266H195.256V94.1787H188.977C186.039 94.1787 183.873 93.4991 182.478 92.1406C181.119 90.7821 180.44 88.6533 180.44 85.7529V70.2217H175.813V64.7686H180.44V57.8848H187.49V64.7686ZM227.869 67.125C230.54 67.125 231.876 67.4391 231.876 68.0664C231.876 68.7835 231.275 69.1689 230.074 69.2227C228.622 69.3123 227.269 69.725 226.014 70.46C224.759 71.1949 223.638 72.199 222.652 73.4717C221.684 74.7445 220.922 76.179 220.366 77.7744C219.828 79.3699 219.56 81.0554 219.56 82.8301C219.56 84.7842 220.016 86.3623 220.931 87.5635C221.845 88.7467 223.038 89.3389 224.508 89.3389C225.87 89.3388 227.062 88.6393 228.084 87.2412C229.106 85.8429 229.617 84.2111 229.617 82.3467C229.617 80.8228 229.294 79.397 228.648 78.0703C228.021 76.7259 227.098 75.5968 225.879 74.6826C225.359 74.2704 225.099 73.9742 225.099 73.7949C225.099 73.5439 225.467 73.1586 226.202 72.6387C227.027 72.083 227.95 71.6167 228.972 71.2402C229.994 70.8637 230.855 70.6748 231.554 70.6748C232.36 70.6749 233.122 70.8902 233.839 71.3203C234.574 71.7326 235.22 72.3333 235.775 73.1221C236.331 73.8929 236.752 74.7897 237.039 75.8115C237.344 76.8155 237.496 77.8917 237.496 79.0391C237.496 80.9393 237.138 82.8221 236.421 84.6865C235.704 86.533 234.762 88.0294 233.597 89.1768C232.091 90.6289 230.271 91.8216 228.138 92.7539C226.022 93.6682 224.005 94.125 222.087 94.125C220.222 94.125 218.367 93.8026 216.521 93.1572C214.692 92.5118 213.24 91.6602 212.164 90.6025C210.73 89.1683 210.013 87.1334 210.013 84.498C210.013 82.4184 210.523 80.3384 211.545 78.2588C212.567 76.1791 213.948 74.2966 215.687 72.6113C217.443 70.9081 219.371 69.5726 221.469 68.6045C223.584 67.6185 225.718 67.125 227.869 67.125ZM277.428 68.0127C279.113 68.0127 280.431 68.5504 281.381 69.626C282.349 70.6837 282.833 72.1453 282.833 74.0098C282.833 75.4619 282.448 76.977 281.677 78.5547C280.924 80.1323 279.803 81.6475 278.315 83.0996C277.096 84.3186 275.895 85.2689 274.712 85.9502C273.547 86.6315 272.524 86.9717 271.646 86.9717C271.251 86.9716 270.848 86.873 270.436 86.6758C270.633 87.7515 271.332 88.29 272.533 88.29C273.878 88.29 275.626 87.5005 277.777 85.9229C279.032 85.0089 279.874 84.552 280.305 84.5518C280.842 84.5518 281.344 84.6956 281.811 84.9824C282.277 85.2692 282.51 85.5645 282.51 85.8691C282.51 86.1918 282.25 86.6139 281.73 87.1338C280.78 88.0839 279.686 89.0154 278.449 89.9297C277.212 90.8261 276.02 91.5799 274.873 92.1895C273.726 92.7811 272.578 93.2557 271.431 93.6143C270.283 93.9548 269.262 94.1249 268.365 94.125C266.124 94.125 264.331 93.4887 262.986 92.2158C261.642 90.925 260.97 89.2125 260.97 87.0791C260.97 85.4477 261.319 83.61 262.019 81.5664C262.736 79.5049 263.694 77.5778 264.896 75.7852C266.312 73.6876 268.052 71.9394 270.113 70.541C272.659 68.8558 275.097 68.0127 277.428 68.0127ZM355.691 57.0137C357.61 57.0137 359.17 57.6058 360.371 58.7891C361.59 59.9723 362.199 61.4875 362.199 63.334C362.199 64.6247 361.832 65.9962 361.097 67.4482C360.362 68.9004 359.331 70.2811 358.004 71.5898C357.161 72.4144 356.202 73.1496 355.127 73.7949C354.069 74.4224 353.244 74.7363 352.652 74.7363C352.473 74.7362 352.312 74.6731 352.169 74.5479C352.026 74.4224 351.953 74.2607 351.953 74.0635C351.953 73.7945 352.186 73.2116 352.652 72.3154C353.19 71.3294 353.719 70.1282 354.239 68.7119C354.759 67.2777 355.154 65.9242 355.423 64.6514C355.71 63.3606 355.853 62.2759 355.853 61.3975V60.9668C355.853 60.3036 355.763 59.9717 355.584 59.9717C355.351 59.9717 354.983 60.3308 354.481 61.0479C353.997 61.765 353.558 62.563 353.164 63.4414C352.178 65.6824 351.308 68.0575 350.555 70.5674C349.802 73.0594 349.22 75.5519 348.808 78.0439C348.664 79.012 348.511 80.061 348.35 81.1904L348.484 81.2979C350.277 79.4512 351.613 78.142 352.491 77.3711C353.37 76.6002 354.509 75.7224 355.907 74.7363C357.664 73.5173 359.116 72.9072 360.264 72.9072C360.999 72.9073 361.564 73.1761 361.958 73.7139C362.37 74.2338 362.576 74.9604 362.576 75.8926C362.576 76.4304 362.468 77.2013 362.253 78.2051C361.876 80.3206 361.688 82.1045 361.688 83.5566C361.688 84.22 361.742 84.9192 361.85 85.6543C361.939 86.228 362.235 87.3842 362.737 89.123C363.149 90.4485 363.355 91.1837 363.355 91.3281C363.355 91.5791 363.06 91.8846 362.469 92.2432C360.568 93.4981 358.82 94.125 357.225 94.125C355.916 94.125 354.849 93.4887 354.024 92.2158C353.218 90.943 352.814 89.2849 352.814 87.2412C352.814 86.4344 352.894 85.457 353.056 84.3096L352.922 84.2021C350.376 86.8196 348.673 88.5856 347.812 89.5C344.621 92.5837 342.164 94.125 340.443 94.125C339.655 94.1249 339 93.6051 338.48 92.5654C337.979 91.5077 337.728 90.1363 337.728 88.4512C337.728 84.8297 338.848 80.2037 341.089 74.5742C341.985 72.3871 342.936 70.2985 343.939 68.3086C344.943 66.3006 345.903 64.5704 346.817 63.1182C347.481 62.0964 348.171 61.209 348.888 60.4561C349.623 59.6852 350.358 59.0488 351.093 58.5469C351.846 58.027 352.608 57.6416 353.379 57.3906C354.15 57.1397 354.921 57.0137 355.691 57.0137ZM380.955 68.0127C382.64 68.0127 383.958 68.5504 384.908 69.626C385.876 70.6837 386.36 72.1453 386.36 74.0098C386.36 75.4619 385.975 76.977 385.204 78.5547C384.451 80.1323 383.331 81.6475 381.843 83.0996C380.624 84.3187 379.422 85.2689 378.238 85.9502C377.073 86.6313 376.051 86.9717 375.173 86.9717C374.778 86.9716 374.375 86.873 373.963 86.6758C374.16 87.7515 374.859 88.29 376.061 88.29C377.405 88.29 379.153 87.5005 381.305 85.9229C382.559 85.0089 383.402 84.552 383.832 84.5518C384.37 84.5518 384.872 84.6956 385.338 84.9824C385.804 85.2692 386.037 85.5645 386.037 85.8691C386.037 86.1918 385.778 86.6139 385.258 87.1338C384.308 88.0839 383.214 89.0154 381.977 89.9297C380.74 90.8261 379.548 91.5799 378.4 92.1895C377.253 92.7811 376.105 93.2557 374.958 93.6143C373.811 93.9548 372.789 94.1249 371.893 94.125C369.652 94.125 367.858 93.4887 366.514 92.2158C365.169 90.925 364.497 89.2125 364.497 87.0791C364.497 85.4477 364.847 83.61 365.546 81.5664C366.263 79.5049 367.222 77.5778 368.423 75.7852C369.839 73.6876 371.579 71.9394 373.641 70.541C376.186 68.8559 378.624 68.0127 380.955 68.0127ZM127.071 69.8359C124.795 69.8359 123.033 70.6991 121.784 72.4248C120.536 74.1138 119.911 76.4629 119.911 79.4736C119.911 82.5211 120.536 84.8901 121.784 86.5791C123.033 88.2678 124.795 89.1123 127.071 89.1123C129.348 89.1123 131.092 88.268 132.304 86.5791C133.552 84.8901 134.176 82.5211 134.176 79.4736C134.176 76.4632 133.552 74.1137 132.304 72.4248C131.092 70.6991 129.348 69.836 127.071 69.8359ZM275.169 71.9395C274.595 71.9395 273.716 73.2036 272.533 75.7314C271.834 77.2552 271.261 78.779 270.812 80.3027C270.382 81.8087 270.167 83.1085 270.167 84.2021C270.167 84.5786 270.238 85.1164 270.382 85.8154C271.206 85.2597 271.834 84.7042 272.265 84.1484C273.215 82.9832 273.95 81.6475 274.47 80.1416C274.882 79.1557 275.204 78.0529 275.438 76.834C275.671 75.6149 275.787 74.4757 275.787 73.418C275.787 72.4324 275.581 71.9397 275.169 71.9395ZM378.696 71.9395C378.123 71.9395 377.244 73.2036 376.061 75.7314C375.361 77.2552 374.787 78.779 374.339 80.3027C373.909 81.8086 373.694 83.1086 373.694 84.2021C373.694 84.5786 373.766 85.1164 373.909 85.8154C374.734 85.2597 375.362 84.7042 375.792 84.1484C376.742 82.9832 377.477 81.6475 377.997 80.1416C378.409 79.1557 378.732 78.0529 378.965 76.834C379.198 75.6149 379.314 74.4757 379.314 73.418C379.314 72.4324 379.108 71.9398 378.696 71.9395ZM54.916 60.8584H47.5908V54.5801H54.916V60.8584ZM194.775 31.3389L201.825 9.69336H209.15L197.64 42.1885C196.979 44.0243 196.042 45.3446 194.83 46.1523C193.655 46.9601 192.003 47.3652 189.873 47.3652H184.861V41.9131H188.606C189.561 41.9131 190.26 41.7664 190.7 41.4727C191.177 41.1789 191.544 40.6818 191.801 39.9844L192.627 37.9473H190.59L180.07 9.69336H187.396L194.775 31.3389ZM384.957 31.3389L392.007 9.69336H399.332L387.821 42.1885C387.16 44.0241 386.224 45.3445 385.013 46.1523C383.838 46.9601 382.185 47.3652 380.056 47.3652H375.044V41.9131H378.789C379.744 41.9131 380.441 41.7664 380.882 41.4727C381.359 41.1789 381.726 40.682 381.983 39.9844L382.81 37.9473H380.771L370.252 9.69336H377.577L384.957 31.3389ZM118.769 9.03223C122.954 9.03223 126.113 10.097 128.242 12.2266C130.408 14.3194 131.491 17.3311 131.491 21.2598V31.9434C131.491 32.7143 131.62 33.2472 131.877 33.541C132.171 33.8347 132.593 33.9814 133.144 33.9814H134.08V39.1035C133.86 39.1769 133.492 39.2318 132.979 39.2686C132.501 39.3053 132.005 39.3242 131.491 39.3242C130.28 39.3242 129.197 39.1405 128.242 38.7734C127.288 38.3695 126.553 37.689 126.039 36.7344C125.729 36.1359 125.514 35.4103 125.391 34.5576C125.044 35.2963 124.563 35.9855 123.946 36.625C122.992 37.6164 121.779 38.3877 120.311 38.9385C118.842 39.4892 117.19 39.7646 115.354 39.7646C112.27 39.7646 109.792 39.0671 107.919 37.6719C106.046 36.2399 105.11 34.2571 105.11 31.7236C105.11 29.1903 105.9 27.2073 107.479 25.7754C109.057 24.3434 111.462 23.3156 114.693 22.6914L124.441 20.7627C124.441 18.67 123.964 17.1091 123.01 16.0811C122.055 15.0164 120.641 14.4844 118.769 14.4844C117.08 14.4844 115.739 14.8886 114.748 15.6963C113.794 16.4673 113.133 17.5881 112.766 19.0566L105.605 18.7256C106.193 15.6048 107.625 13.2177 109.901 11.5654C112.178 9.87649 115.134 9.03227 118.769 9.03223ZM224.736 9.03223C227.637 9.03229 230.17 9.67499 232.336 10.96C234.502 12.2083 236.174 13.9887 237.349 16.3018C238.56 18.5782 239.166 21.2775 239.166 24.3984C239.166 27.4825 238.56 30.1821 237.349 32.4951C236.174 34.8082 234.502 36.6075 232.336 37.8926C230.17 39.1407 227.637 39.7646 224.736 39.7646C221.836 39.7646 219.283 39.141 217.08 37.8926C214.914 36.6076 213.225 34.8081 212.014 32.4951C210.839 30.1821 210.251 27.4825 210.251 24.3984C210.251 21.2775 210.839 18.5782 212.014 16.3018C213.225 13.989 214.914 12.2082 217.08 10.96C219.283 9.67487 221.836 9.03223 224.736 9.03223ZM250.994 26.877C250.994 29.3368 251.398 31.1542 252.206 32.3291C253.051 33.4673 254.318 34.0361 256.007 34.0361C257.916 34.036 259.384 33.4123 260.412 32.1641C261.477 30.879 262.01 29.0239 262.01 26.6006V9.69336H269.06V39.1035H262.615L262.517 34.2861C261.961 35.6425 261.188 36.7533 260.192 37.6162C258.54 39.0481 256.355 39.7646 253.639 39.7646C250.665 39.7646 248.296 38.7917 246.533 36.8457C244.808 34.863 243.944 32.1267 243.944 28.6387V9.69336H250.994V26.877ZM336.867 39.1035H330.148L329.983 34.7529C329.176 36.3317 327.963 37.5612 326.348 38.4424C324.732 39.3235 322.897 39.7646 320.841 39.7646C318.344 39.7646 316.178 39.1409 314.342 37.8926C312.543 36.6442 311.148 34.8629 310.156 32.5498C309.165 30.2368 308.669 27.5192 308.669 24.3984C308.669 21.2775 309.165 18.5602 310.156 16.2471C311.148 13.934 312.561 12.1526 314.396 10.9043C316.232 9.65594 318.381 9.03223 320.841 9.03223C322.897 9.03225 324.696 9.45534 326.238 10.2998C327.817 11.1443 329.011 12.3369 329.818 13.8789V0H336.867V39.1035ZM355.336 9.03223C359.521 9.03223 362.679 10.0972 364.809 12.2266C366.975 14.3194 368.059 17.331 368.059 21.2598V31.9434C368.059 32.7144 368.187 33.2473 368.444 33.541C368.738 33.8347 369.16 33.9814 369.711 33.9814H370.647V39.1035C370.427 39.1769 370.06 39.2318 369.546 39.2686C369.069 39.3053 368.573 39.3242 368.059 39.3242C366.847 39.3242 365.763 39.1406 364.809 38.7734C363.854 38.3695 363.12 37.689 362.606 36.7344C362.296 36.1356 362.08 35.4098 361.957 34.5566C361.61 35.2956 361.129 35.9854 360.513 36.625C359.558 37.6163 358.347 38.3878 356.878 38.9385C355.409 39.4892 353.757 39.7646 351.921 39.7646C348.837 39.7646 346.359 39.0669 344.486 37.6719C342.614 36.2399 341.677 34.2571 341.677 31.7236C341.677 29.1903 342.467 27.2073 344.046 25.7754C345.625 24.3434 348.03 23.3156 351.261 22.6914L361.009 20.7627C361.009 18.67 360.532 17.1091 359.577 16.0811C358.622 15.0163 357.208 14.4844 355.336 14.4844C353.647 14.4844 352.307 14.8885 351.315 15.6963C350.361 16.4673 349.7 17.588 349.333 19.0566L342.173 18.7256C342.76 15.6048 344.192 13.2176 346.469 11.5654C348.745 9.87653 351.701 9.03223 355.336 9.03223ZM71.0195 0C75.609 5.14498e-05 79.1887 1.10172 81.7588 3.30469C84.3288 5.50765 85.6142 8.55447 85.6143 12.4463C85.6143 15.0531 85.0264 17.3115 83.8516 19.2207C82.6766 21.0933 81.0061 22.5262 78.8398 23.5176C76.6737 24.5088 74.0668 25.0039 71.0195 25.0039H63.0332V39.1035H55.873V0H71.0195ZM98.2852 31.4482C98.2852 32.1825 98.4688 32.7324 98.8359 33.0996C99.2398 33.4668 99.7907 33.6514 100.488 33.6514H102.636V39.1035H98.2852C96.1557 39.1035 94.4482 38.5526 93.1631 37.4512C91.878 36.3497 91.2354 34.5874 91.2354 32.1641V0H98.2852V31.4482ZM153.363 9.03223C155.529 9.03224 157.347 9.50943 158.815 10.4639C160.321 11.4185 161.459 12.7408 162.23 14.4297C163.002 16.082 163.387 18.0099 163.387 20.2129V39.1035H156.337V22.4707C156.337 20.8184 156.172 19.4234 155.842 18.2852C155.511 17.1472 154.96 16.2837 154.189 15.6963C153.455 15.0721 152.463 14.7607 151.215 14.7607C149.343 14.7608 147.837 15.4207 146.699 16.7422C145.598 18.064 145.047 19.9739 145.047 22.4707V39.1035H137.997V9.69336H144.386L144.553 14.7285C144.848 13.9496 145.215 13.2622 145.652 12.667C146.57 11.4186 147.691 10.5006 149.013 9.91309C150.334 9.32573 151.785 9.03223 153.363 9.03223ZM282.946 15.332C283.415 13.7193 284.067 12.4824 284.903 11.6211C286.152 10.336 287.841 9.69336 289.971 9.69336H292.669V15.752H289.915C288.41 15.752 287.161 15.9715 286.17 16.4121C285.179 16.8527 284.426 17.5504 283.912 18.5049C283.435 19.4227 283.196 20.6345 283.196 22.1396V39.1035H276.146V9.69336H282.756L282.946 15.332ZM116.841 27.0977C115.262 27.4281 114.124 27.9233 113.427 28.584C112.766 29.2081 112.436 30.0345 112.436 31.0625C112.436 32.2007 112.803 33.0819 113.537 33.7061C114.308 34.3301 115.391 34.6426 116.786 34.6426C118.365 34.6426 119.723 34.3301 120.861 33.7061C121.999 33.0819 122.882 32.2196 123.506 31.1182C124.13 30.0167 124.441 28.7124 124.441 27.207V25.5557L116.841 27.0977ZM353.408 27.0977C351.829 27.4281 350.691 27.9231 349.993 28.584C349.332 29.2081 349.002 30.0346 349.002 31.0625C349.002 32.2007 349.369 33.0819 350.104 33.7061C350.875 34.3302 351.958 34.6426 353.354 34.6426C354.932 34.6425 356.291 34.3302 357.429 33.7061C358.567 33.082 359.448 32.2194 360.072 31.1182C360.696 30.0167 361.009 28.7124 361.009 27.207V25.5557L353.408 27.0977ZM224.736 14.7607C222.46 14.7607 220.698 15.6231 219.449 17.3486C218.201 19.0376 217.576 21.3876 217.576 24.3984C217.576 27.4457 218.201 29.814 219.449 31.5029C220.698 33.1919 222.46 34.0361 224.736 34.0361C227.013 34.036 228.756 33.1918 229.968 31.5029C231.216 29.814 231.841 27.4457 231.841 24.3984C231.841 21.3876 231.216 19.0376 229.968 17.3486C228.756 15.6232 227.012 14.7608 224.736 14.7607ZM322.988 14.7607C320.859 14.7608 319.151 15.623 317.866 17.3486C316.618 19.0376 315.994 21.3877 315.994 24.3984C315.994 27.3355 316.618 29.6859 317.866 31.4482C319.151 33.1739 320.859 34.0361 322.988 34.0361C324.457 34.0361 325.687 33.6698 326.679 32.9355C327.707 32.2012 328.478 31.1175 328.992 29.6855C329.543 28.217 329.818 26.4543 329.818 24.3984C329.818 22.3056 329.543 20.5433 328.992 19.1113C328.478 17.6795 327.707 16.5966 326.679 15.8623C325.687 15.128 324.457 14.7607 322.988 14.7607ZM63.0332 18.7812H70.6885C73.1118 18.7812 74.9659 18.2484 76.251 17.1836C77.5728 16.1188 78.2344 14.5392 78.2344 12.4463C78.2343 10.3903 77.5727 8.84932 76.251 7.82129C74.9659 6.75659 73.1117 6.22363 70.6885 6.22363H63.0332V18.7812Z" fill="#FAFAFA"/>
</svg>
