<svg width="600" height="600" viewBox="0 0 600 600" fill="none" xmlns="http://www.w3.org/2000/svg">
<path d="M345.331 104.708C345.463 104.693 345.595 104.677 345.727 104.661C372.067 102.902 399.823 121.034 401.646 148.835C402.032 154.741 401.379 160.588 400.245 166.363C398.165 176.949 393.706 186.635 386.587 194.787C387.853 194.931 389.109 195.137 390.352 195.404C398.329 197.175 406.359 203.085 410.839 209.881C414.806 215.897 414.902 224.03 413.309 230.874C409.438 247.489 397.629 260.399 383.575 269.308C388.652 276.654 392.479 284.571 396.272 292.639C420.539 344.27 422.048 414.384 371.856 451.418C350.13 467.452 321.882 472.931 295.277 469.266C267.351 465.413 238.936 448.037 222.235 425.32C212.603 430.597 204.831 432.322 193.783 430.31C193.239 430.225 192.873 430.163 192.335 430.04C182.357 427.658 173.732 421.415 168.356 412.676C161.766 402.176 159.798 386.561 162.664 374.604C165.326 363.835 172.187 354.58 181.717 348.905C161.776 336.914 132.938 314.977 131.985 289.745C131.507 279.391 135.265 269.288 142.395 261.765C151.4 252.07 163.17 249.509 175.811 249.029C163.584 239.932 149.016 245.428 139.138 232.852C136.088 229.03 134.74 224.123 135.411 219.279C136.013 214.632 138.485 210.432 142.255 207.65C147.102 204.071 153.273 203.14 159.098 204.173C172.766 206.596 180.248 215.441 187.861 225.843C188.411 219.106 189.171 213.645 190.998 207.092C197.776 182.776 220.337 157.905 247.864 166.43C256.49 169.102 262.274 173.026 266.651 181.1C280.512 146.125 304.104 108.416 345.331 104.708ZM243.498 296.101C254.812 319.321 252.198 342.448 236.895 363.114C230.816 371.323 227.244 374.004 221.486 363.179C216.043 353.306 201.095 351.557 191.461 355.591C183.676 358.852 177.501 364.854 174.161 372.674C170.452 382.116 171.321 393.343 174.985 402.891C181.644 420.243 205.004 426.973 219.047 414.243C221.718 411.823 223.65 406.113 228.8 408.026C232.223 409.418 232.287 412.922 231.142 415.737C230.674 416.455 229.983 417.448 229.569 418.172C234.267 423.674 238.699 428.739 244.049 433.626C260.392 448.793 281.37 458.007 303.595 459.776C326.684 461.602 353.024 454.737 370.529 439.304C423.589 392.52 402.794 306.642 363.015 258.508C360.199 255.1 354.958 249.783 351.387 247.424C327.469 274.552 292.837 293.751 256.43 296.001C252.124 296.253 247.808 296.285 243.498 296.101Z" fill="#171717"/>
<path d="M243.498 296.101C254.812 319.321 252.198 342.448 236.895 363.114C230.816 371.323 227.244 374.004 221.486 363.179C216.043 353.306 201.095 351.557 191.461 355.591C183.676 358.852 177.501 364.854 174.161 372.674C170.452 382.116 171.321 393.343 174.985 402.891C181.644 420.243 205.004 426.973 219.047 414.243C221.718 411.823 223.65 406.113 228.8 408.026C232.223 409.418 232.287 412.922 231.142 415.737C230.674 416.455 229.983 417.448 229.569 418.172C234.267 423.674 238.699 428.739 244.049 433.626C260.392 448.793 281.37 458.007 303.595 459.776C326.684 461.602 353.024 454.737 370.529 439.304C423.589 392.52 402.794 306.642 363.015 258.508C360.199 255.1 354.958 249.783 351.387 247.424C327.469 274.552 292.837 293.751 256.43 296.001C252.124 296.253 247.808 296.285 243.498 296.101Z" fill="white"/>
<path d="M345.394 99.6724C373.717 97.7811 404.585 117.233 406.635 148.507V148.508C407.059 154.989 406.336 161.295 405.151 167.326V167.327C403.437 176.053 400.197 184.274 395.277 191.64C403.227 194.483 410.594 200.425 415.013 207.128C420.054 214.773 419.921 224.523 418.178 232.007V232.008C414.326 248.545 403.407 261.467 390.455 270.703C394.459 277.173 397.694 283.913 400.797 290.512H400.798C425.296 342.636 427.829 415.16 376.058 454.518L374.825 455.441C351.88 472.375 322.266 478.031 294.595 474.219L294.594 474.218C266.689 470.369 238.522 453.756 220.807 431.666C217.051 433.444 213.349 434.742 209.451 435.464C204.215 436.435 198.886 436.322 192.887 435.229V435.228C192.351 435.144 191.874 435.064 191.22 434.915L191.197 434.909L191.174 434.904C179.922 432.218 170.194 425.182 164.121 415.333V415.333C156.738 403.57 154.659 386.551 157.802 373.439L157.806 373.422L157.81 373.405C160.157 363.908 165.421 355.463 172.762 349.196C164.014 343.494 154.324 336.217 146.14 327.769C135.986 317.288 127.533 304.371 126.988 289.933L126.989 289.932C126.477 278.601 130.449 267.539 138.021 259.131L138.765 258.326C143.908 252.802 149.805 249.361 156.046 247.236C155.889 247.204 155.731 247.173 155.573 247.14C148.919 245.753 141.29 243.686 135.206 235.941V235.94C131.319 231.051 129.602 224.782 130.458 218.593C131.245 212.613 134.432 207.209 139.286 203.626C145.463 199.066 153.103 198.032 159.971 199.25C170.877 201.183 178.306 206.747 184.387 213.459C184.849 210.975 185.429 208.449 186.182 205.75C189.808 192.741 197.649 179.516 208.468 170.589C219.399 161.57 233.634 156.789 249.343 161.654C255.832 163.664 261.127 166.437 265.463 170.951C279.856 138.106 303.931 103.452 344.808 99.7358C344.913 99.7233 345.02 99.7101 345.131 99.6968L345.262 99.6812L345.394 99.6724Z" stroke="white" stroke-width="10"/>
<path d="M305.864 306.27C316 304.979 325.273 312.113 326.632 322.234L326.69 322.708C327.774 332.65 320.77 341.703 310.819 343.115H310.817C300.601 344.561 291.157 337.415 289.785 327.186L289.728 326.707C288.638 316.669 295.787 307.55 305.864 306.271V306.27Z" fill="#171717" stroke="white" stroke-width="10"/>
<path d="M351.239 329.977C353.675 329.729 355.984 329.954 358.069 331.009C360.137 332.056 361.38 333.624 362.181 334.781C363.865 337.213 364.204 338.284 366.105 339.489C366.883 339.965 367.753 340.268 368.654 340.378L369.044 340.413L369.082 340.415C370.179 340.489 370.755 340.291 371.121 340.106C371.569 339.878 372.062 339.485 372.823 338.673C373.975 337.444 376.707 333.688 381.149 332.329L381.383 332.257L381.624 332.209C384.602 331.609 387.414 332.824 389.029 334.048L389.032 334.05C390.651 335.279 391.961 336.836 392.671 338.771C393.386 340.718 393.332 342.611 392.951 344.229C392.274 347.099 390.414 349.605 389.253 351.127C383.622 359.286 372.457 361.929 364.045 360.145V360.144C356.637 358.585 350.155 354.136 346.043 347.773L346.035 347.761C344.546 345.444 343.084 342.396 343.374 339.029C343.7 335.234 346.075 332.47 349.225 330.632L350.161 330.086L351.239 329.977Z" fill="#171717" stroke="white" stroke-width="10"/>
<path d="M199.006 363.946C203.685 363.497 207.543 365.568 210.281 368.042C212.831 370.347 214.749 373.278 216.013 375.971L216.257 376.506L216.262 376.516L216.266 376.526C219.236 383.316 219.388 391.009 216.687 397.91L216.678 397.933L216.669 397.956C215.346 401.24 213.073 405.216 208.385 407.189L207.726 407.466L207.017 407.547C205.543 407.717 203.768 407.611 202.098 407.136C200.56 406.698 198.119 405.656 196.726 403.155C194.692 399.503 195.506 395.845 196.23 393.566C196.593 392.425 197.076 391.222 197.385 390.407C197.739 389.471 197.946 388.846 198.047 388.352L198.068 388.247L198.094 388.144C198.384 386.977 198.327 386.342 198.257 386.013C198.187 385.691 198.035 385.334 197.636 384.805C197.172 384.191 196.575 383.59 195.586 382.589C194.68 381.673 193.512 380.482 192.429 379.019C189.948 375.668 190.635 372.003 191.952 369.588C193.189 367.32 195.202 365.554 197.107 364.525L197.998 364.043L199.006 363.946Z" fill="#171717" stroke="white" stroke-width="10"/>
<path d="M429.16 296.355C439.065 294.305 448.84 300.566 451.072 310.493C453.304 320.418 447.152 330.263 437.324 332.652L436.854 332.76C426.87 334.919 417.011 328.622 414.771 318.659L414.672 318.191C412.723 308.382 418.897 298.746 428.688 296.458L429.16 296.355Z" fill="#171717" stroke="white" stroke-width="10"/>
</svg>
