<svg width="117" height="72" viewBox="0 0 117 72" fill="none" xmlns="http://www.w3.org/2000/svg">
<g clip-path="url(#clip0_663_386)">
<path opacity="0.5" d="M0.258789 34.3216L58.2372 0.282325C58.3992 0.187143 58.6006 0.187141 58.7627 0.282323L116.741 34.3216M0.258789 34.3216L58.2372 68.3609C58.3992 68.4561 58.6006 68.4561 58.7627 68.3609L116.741 34.3216M0.258789 34.3216V38.6662C0.258789 38.852 0.359044 39.0233 0.521255 39.1152L58.2447 71.7258C58.4031 71.8153 58.5967 71.8153 58.7552 71.7258L116.479 39.1152C116.641 39.0233 116.741 38.852 116.741 38.6662V34.3216M12.8941 38.9668L10.9911 37.8631C10.6485 37.6644 10.6478 37.1712 10.9898 36.9715L64.3189 5.8307C64.4817 5.73558 64.6836 5.7364 64.8456 5.83287L111.97 33.8703C112.31 34.0724 112.306 34.5642 111.963 34.7609L110.479 35.612M12.8941 38.9668L58.2411 65.2682C58.4013 65.3611 58.5988 65.3616 58.7596 65.2695L110.479 35.612M12.8941 38.9668L64.322 9.05408C64.4832 8.96027 64.6826 8.9603 64.8438 9.05413L110.479 35.612" stroke="#737373"/>
<path opacity="0.5" d="M9.20022 32.0001C9.81936 32.0001 10.3746 32.181 10.7718 32.4672C11.1691 32.7532 11.4004 33.1372 11.4004 33.5485C11.4004 33.9599 11.1691 34.3439 10.7718 34.6298C10.3746 34.916 9.81936 35.0969 9.20022 35.0969C8.58108 35.0969 8.02587 34.916 7.62867 34.6298C7.23133 34.3439 7 33.9599 7 33.5485C7 33.1372 7.23133 32.7532 7.62867 32.4672C8.02587 32.181 8.58108 32.0001 9.20022 32.0001Z" stroke="#737373"/>
<path opacity="0.5" d="M14.2002 29C14.8194 29 15.3746 29.1809 15.7718 29.4671C16.1691 29.753 16.4004 30.137 16.4004 30.5484C16.4004 30.9597 16.1691 31.3437 15.7718 31.6297C15.3746 31.9159 14.8194 32.0968 14.2002 32.0968C13.5811 32.0968 13.0259 31.9159 12.6287 31.6297C12.2313 31.3437 12 30.9597 12 30.5484C12 30.137 12.2313 29.753 12.6287 29.4671C13.0259 29.1809 13.5811 29 14.2002 29Z" stroke="#737373"/>
<path opacity="0.5" d="M19.2002 26C19.8194 26 20.3746 26.1809 20.7718 26.4671C21.1691 26.753 21.4004 27.137 21.4004 27.5484C21.4004 27.9597 21.1691 28.3437 20.7718 28.6297C20.3746 28.9159 19.8194 29.0968 19.2002 29.0968C18.5811 29.0968 18.0259 28.9159 17.6287 28.6297C17.2313 28.3437 17 27.9597 17 27.5484C17 27.137 17.2313 26.753 17.6287 26.4671C18.0259 26.1809 18.5811 26 19.2002 26Z" stroke="#737373"/>
<path d="M20.861 39.6267L19.6266 39.0605C19.2548 38.8902 19.219 38.3771 19.5636 38.157L24.9364 34.7242C25.0778 34.6339 25.2543 34.6177 25.41 34.6804L26.8731 35.2708C27.2673 35.4298 27.3116 35.9689 26.9484 36.1898L21.347 39.5983C21.1999 39.6878 21.0176 39.6984 20.861 39.6267Z" fill="#737373"/>
<path d="M25.9084 40.6599L24.6739 40.0937C24.3022 39.9234 24.2664 39.4103 24.6109 39.1902L29.9838 35.7574C30.1251 35.6671 30.3016 35.6509 30.4574 35.7136L31.9205 36.304C32.3147 36.463 32.359 37.0021 31.9958 37.223L26.3943 40.6315C26.2473 40.7211 26.065 40.7316 25.9084 40.6599Z" fill="#737373"/>
<path d="M34.4504 35.4977L33.216 34.9315C32.8443 34.7611 32.8083 34.2481 33.1531 34.028L38.5257 30.5952C38.6671 30.5049 38.8436 30.4886 38.9994 30.5513L40.4625 31.1418C40.8567 31.3008 40.9009 31.8398 40.5378 32.0608L34.9363 35.4693C34.7893 35.5588 34.607 35.5694 34.4504 35.4977Z" fill="#737373"/>
<path d="M42.7336 30.3375L41.4992 29.7713C41.1275 29.601 41.0915 29.088 41.4363 28.8678L46.809 25.4351C46.9503 25.3448 47.1268 25.3284 47.2826 25.3912L48.7457 25.9817C49.1399 26.1406 49.1842 26.6797 48.821 26.9006L43.2195 30.3091C43.0725 30.3987 42.8902 30.4093 42.7336 30.3375Z" fill="#737373"/>
<path d="M32.1208 41.6931L30.8864 41.1269C30.5147 40.9566 30.4787 40.4435 30.8235 40.2234L36.1962 36.7906C36.3375 36.7003 36.514 36.6841 36.6698 36.7468L38.1329 37.3372C38.5271 37.4962 38.5714 38.0353 38.2082 38.2562L32.6067 41.6647C32.4597 41.7543 32.2774 41.7648 32.1208 41.6931Z" fill="#737373"/>
<path opacity="0.5" d="M51.7937 52.7458L50.5592 52.1796C50.1875 52.0093 50.1515 51.4963 50.4963 51.2761L55.869 47.8434C56.0103 47.7531 56.1869 47.7368 56.3427 47.7995L57.8057 48.39C58.1999 48.5489 58.2442 49.088 57.881 49.3089L52.2795 52.7174C52.1325 52.807 51.9503 52.8176 51.7937 52.7458Z" fill="#737373"/>
<path d="M43.5111 39.6262L42.2834 39.0631C41.9099 38.892 41.876 38.3762 42.2236 38.1578L49.3987 33.6461C49.5395 33.5576 49.7147 33.5418 49.869 33.6043L51.3315 34.1942C51.7262 34.3537 51.77 34.8936 51.4058 35.114L43.996 39.5984C43.8489 39.6874 43.6672 39.6977 43.5111 39.6262Z" fill="#737373"/>
<path d="M62.1483 50.7669L60.9206 50.2038C60.5471 50.0327 60.5132 49.5168 60.8608 49.2985L68.0359 44.7867C68.1767 44.6982 68.3519 44.6825 68.5062 44.7449L69.9687 45.3349C70.3634 45.4943 70.4072 46.0342 70.043 46.2546L62.6332 50.739C62.4861 50.828 62.3044 50.8383 62.1483 50.7669Z" fill="#737373"/>
<path d="M62.4071 28.3156L61.1794 27.7525C60.8059 27.5814 60.772 27.0655 61.1196 26.8472L68.2947 22.3355C68.4355 22.2468 68.6107 22.2312 68.765 22.2936L70.2275 22.8837C70.6222 23.043 70.666 23.583 70.3018 23.8033L62.8919 28.2877C62.7449 28.3768 62.5632 28.3871 62.4071 28.3156Z" fill="#737373"/>
<path opacity="0.5" d="M67.3284 43.2851L66.1139 42.7282C65.7372 42.5553 65.7069 42.0335 66.0608 41.8186L76.2677 35.6204C76.4078 35.5355 76.5797 35.5215 76.7313 35.5827L78.1853 36.1695C78.5826 36.3298 78.6235 36.8743 78.2549 37.0921L67.8085 43.2604C67.6623 43.3466 67.4829 43.3558 67.3284 43.2851Z" fill="#737373"/>
<path d="M80.2707 39.8008L79.0562 39.2439C78.6796 39.071 78.6493 38.5491 79.0032 38.3342L89.2101 32.136C89.3502 32.0511 89.522 32.0371 89.6737 32.0983L91.1277 32.6852C91.525 32.8454 91.5659 33.3899 91.1973 33.6077L80.7509 39.776C80.6047 39.8622 80.4253 39.8715 80.2707 39.8008Z" fill="#737373"/>
<path d="M39.6275 37.3044L38.3931 36.7382C38.0214 36.5679 37.9854 36.0549 38.3302 35.8347L43.7029 32.402C43.8442 32.3116 44.0207 32.2954 44.1766 32.3581L45.6396 32.9485C46.0338 33.1075 46.0781 33.6466 45.7149 33.8675L40.1134 37.276C39.9664 37.3656 39.7841 37.3762 39.6275 37.3044Z" fill="#737373"/>
<path opacity="0.5" d="M59.3 48.3591L58.0656 47.7929C57.6939 47.6226 57.6579 47.1096 58.0027 46.8894L63.3754 43.4567C63.5167 43.3663 63.6932 43.3501 63.849 43.4128L65.3121 44.0032C65.7063 44.1622 65.7506 44.7013 65.3874 44.9222L59.7859 48.3307C59.6389 48.4203 59.4566 48.4308 59.3 48.3591Z" fill="#737373"/>
<path opacity="0.5" d="M45.8401 51.4978L44.6056 50.9316C44.2339 50.7613 44.1979 50.2482 44.5427 50.0281L49.9154 46.5953C50.0567 46.505 50.2333 46.4887 50.3891 46.5515L51.8521 47.1419C52.2463 47.3009 52.2906 47.84 51.9274 48.0609L46.3259 51.4694C46.1789 51.5589 45.9967 51.5695 45.8401 51.4978Z" fill="#737373"/>
<path d="M53.8645 33.4332L52.63 32.867C52.2583 32.6967 52.2223 32.1837 52.5671 31.9635L57.9398 28.5308C58.0811 28.4404 58.2577 28.4242 58.4135 28.4869L59.8765 29.0773C60.2707 29.2363 60.315 29.7754 59.9518 29.9963L54.3503 33.4048C54.2033 33.4944 54.0211 33.5049 53.8645 33.4332Z" fill="#737373"/>
<path d="M72.7605 44.529L71.526 43.9628C71.1543 43.7925 71.1183 43.2795 71.4631 43.0594L76.8358 39.6266C76.9771 39.5363 77.1537 39.52 77.3095 39.5827L78.7725 40.1732C79.1667 40.3321 79.211 40.8712 78.8478 41.0921L73.2463 44.5006C73.0993 44.5902 72.9171 44.6008 72.7605 44.529Z" fill="#737373"/>
<path d="M47.395 32.9199L46.1585 32.353C45.7865 32.1824 45.7508 31.6696 46.0953 31.4495L49.7852 29.0913C49.9268 29.001 50.1033 28.9847 50.2589 29.0474L51.7131 29.6343C52.1089 29.794 52.1516 30.3359 51.7853 30.5553L47.8778 32.8936C47.7312 32.9814 47.5506 32.9912 47.395 32.9199Z" fill="#737373"/>
<path d="M38.5942 46.8107L37.3577 46.2437C36.9857 46.0731 36.95 45.5604 37.2945 45.3402L40.9844 42.982C41.126 42.8917 41.3026 42.8755 41.4581 42.9382L42.9123 43.525C43.3081 43.6848 43.3508 44.2267 42.9846 44.446L39.077 46.7844C38.9305 46.8721 38.7498 46.8819 38.5942 46.8107Z" fill="#737373"/>
<path d="M57.7491 57.9081L56.5125 57.3411C56.1406 57.1706 56.1049 56.6578 56.4494 56.4377L60.1393 54.0795C60.2809 53.9891 60.4574 53.9729 60.613 54.0356L62.0672 54.6224C62.463 54.7822 62.5057 55.3241 62.1394 55.5435L58.2318 57.8818C58.0853 57.9695 57.9046 57.9793 57.7491 57.9081Z" fill="#737373"/>
<path d="M59.3022 61.2638L58.0657 60.6968C57.6937 60.5263 57.658 60.0135 58.0025 59.7934L61.6924 57.4352C61.834 57.3448 62.0106 57.3286 62.1661 57.3913L63.6204 57.9781C64.0161 58.1379 64.0588 58.6798 63.6926 58.8992L59.785 61.2375C59.6385 61.3252 59.4578 61.335 59.3022 61.2638Z" fill="#737373"/>
<path d="M56.4551 54.2951L55.2185 53.7281C54.8466 53.5575 54.8108 53.0447 55.1554 52.8246L58.8453 50.4664C58.9869 50.3761 59.1634 50.3598 59.319 50.4225L60.7732 51.0094C61.169 51.1691 61.2117 51.7111 60.8454 51.9304L56.9378 54.2687C56.7913 54.3565 56.6106 54.3663 56.4551 54.2951Z" fill="#737373"/>
<path d="M40.4062 49.9081L39.1696 49.3411C38.7977 49.1706 38.762 48.6578 39.1065 48.4377L42.7964 46.0795C42.938 45.9891 43.1145 45.9729 43.2701 46.0356L44.7243 46.6224C45.1201 46.7822 45.1628 47.3241 44.7965 47.5435L40.8889 49.8818C40.7424 49.9695 40.5617 49.9793 40.4062 49.9081Z" fill="#737373"/>
<path d="M36.7822 43.1994L35.5457 42.6324C35.1737 42.4618 35.138 41.949 35.4825 41.7289L39.1724 39.3707C39.314 39.2804 39.4905 39.2641 39.6461 39.3268L41.1003 39.9137C41.4961 40.0734 41.5388 40.6154 41.1726 40.8347L37.265 43.173C37.1185 43.2608 36.9378 43.2706 36.7822 43.1994Z" fill="#737373"/>
<path opacity="0.5" d="M54.3843 46.2951L53.1477 45.7281C52.7758 45.5575 52.74 45.0447 53.0846 44.8246L56.7745 42.4664C56.9161 42.3761 57.0926 42.3598 57.2482 42.4225L58.7024 43.0094C59.0982 43.1691 59.1409 43.7111 58.7746 43.9304L54.867 46.2687C54.7205 46.3565 54.5398 46.3663 54.3843 46.2951Z" fill="#737373"/>
<path opacity="0.5" d="M61.373 42.1662L60.1364 41.5992C59.7645 41.4286 59.7288 40.9158 60.0733 40.6957L63.7632 38.3375C63.9048 38.2472 64.0813 38.2309 64.2369 38.2936L65.6911 38.8805C66.0869 39.0402 66.1296 39.5822 65.7633 39.8015L61.8557 42.1398C61.7092 42.2276 61.5285 42.2374 61.373 42.1662Z" fill="#737373"/>
</g>
<defs>
<clipPath id="clip0_663_386">
<rect width="117" height="72" fill="white"/>
</clipPath>
</defs>
</svg>
