<svg width="116" height="72" viewBox="0 0 116 72" fill="none" xmlns="http://www.w3.org/2000/svg">
<g clip-path="url(#clip0_663_360)">
<path opacity="0.5" d="M0.256638 34.3286L57.7395 0.410854C57.9002 0.316012 58.0998 0.31601 58.2605 0.410852L115.743 34.3286M0.256638 34.3286L57.7395 68.2463C57.9002 68.3411 58.0998 68.3411 58.2605 68.2463L115.743 34.3286M0.256638 34.3286V38.6576C0.256638 38.8427 0.356036 39.0135 0.51686 39.105L57.747 71.5991C57.904 71.6884 58.096 71.6884 58.253 71.5991L115.483 39.105C115.644 39.0135 115.743 38.8427 115.743 38.6576V34.3286M12.784 38.9572L5.39541 34.7686C5.05103 34.5731 5.04733 34.0774 5.38876 33.8771L58.2523 2.85318C58.4134 2.75868 58.6128 2.7592 58.7735 2.85455L92.9224 23.137C93.2591 23.3369 93.2576 23.8255 92.9196 24.0234L40.4221 54.7661C40.2625 54.8594 40.0649 54.8597 39.905 54.7666L12.784 38.9572ZM109.535 35.6143L58.2574 65.1659C58.098 65.2577 57.9022 65.2572 57.7434 65.1647L44.2083 57.275C43.8675 57.0762 43.8683 56.5825 44.2101 56.385L97.0055 25.8668C97.1662 25.774 97.3643 25.775 97.5237 25.8699L111.009 33.8796C111.347 34.0802 111.344 34.5713 111.004 34.7678L109.535 35.6143Z" stroke="#737373"/>
<path d="M13.0885 36.5149C14.3642 36.5149 15.3983 35.7665 15.3983 34.8434C15.3983 33.9203 14.3642 33.172 13.0885 33.172C11.8129 33.172 10.7788 33.9203 10.7788 34.8434C10.7788 35.7665 11.8129 36.5149 13.0885 36.5149Z" fill="#737373"/>
<path d="M17.4744 33.3129L16.2402 32.7441C15.8738 32.5751 15.836 32.0683 16.1733 31.8469L19.4606 29.6877C19.6014 29.5951 19.7785 29.5779 19.9346 29.6411L21.382 30.2282C21.7729 30.3866 21.8168 30.9238 21.4568 31.1439L17.9563 33.2846C17.8104 33.3738 17.6297 33.3843 17.4744 33.3129Z" fill="#737373"/>
<path d="M31.5779 34.8896L30.3789 34.3373C30.0047 34.1647 29.9754 33.643 30.328 33.4296L55.9084 17.9626C56.0467 17.879 56.2163 17.8655 56.3662 17.9262L57.8126 18.5129C58.2058 18.6723 58.2471 19.2136 57.8829 19.4313L32.0552 34.8642C31.91 34.9511 31.7313 34.9606 31.5779 34.8896Z" fill="#737373"/>
<path d="M32.6217 38.6627L31.4312 38.114C31.0547 37.9404 31.028 37.4145 31.385 37.2037L62.1442 19.0303C62.282 18.9489 62.4493 18.9365 62.5974 18.9966L64.0356 19.5798C64.4308 19.7401 64.4701 20.2853 64.1018 20.5007L33.0952 38.6396C32.9504 38.7242 32.7739 38.7326 32.6217 38.6627Z" fill="#737373"/>
<path opacity="0.5" d="M38.7641 38.8668L38.7292 38.8506C38.3545 38.6778 38.3258 38.1552 38.6794 37.9423L63.6936 22.884C63.826 22.8043 63.9872 22.7886 64.1325 22.8412L64.3601 22.9237C64.7679 23.0713 64.8205 23.6278 64.4476 23.8496L39.2407 38.8416C39.0957 38.928 38.9176 38.9372 38.7641 38.8668Z" fill="#737373"/>
<path d="M51.4752 57.7668L51.4274 57.745C51.0553 57.5735 51.0237 57.0556 51.3725 56.8401L58.3625 52.5183C58.496 52.4357 58.6595 52.4188 58.8068 52.4723L59.0308 52.5535C59.4389 52.7011 59.4915 53.2576 59.1186 53.4792L51.9515 57.7419C51.8065 57.828 51.6284 57.8375 51.4752 57.7668Z" fill="#737373"/>
<path d="M69.1834 47.5498L69.1357 47.528C68.7636 47.3565 68.732 46.8386 69.0808 46.6231L76.0708 42.3013C76.2042 42.219 76.3677 42.202 76.515 42.2553L76.7391 42.3365C77.1471 42.4841 77.1997 43.0406 76.8268 43.2625L69.6597 47.5249C69.5147 47.6113 69.3366 47.6206 69.1834 47.5498Z" fill="#737373"/>
<path d="M86.6346 37.5225L86.5869 37.5006C86.2147 37.3291 86.1832 36.8112 86.5319 36.5958L93.522 32.274C93.6554 32.1917 93.8189 32.1747 93.9662 32.2279L94.1902 32.3092C94.5983 32.4568 94.6509 33.0132 94.278 33.2352L87.1109 37.4976C86.9659 37.584 86.7878 37.5932 86.6346 37.5225Z" fill="#737373"/>
<path opacity="0.5" d="M54.8121 59.379L54.7711 59.3602C54.3974 59.1879 54.3674 58.6674 54.719 58.4535L64.3944 52.5631C64.5274 52.4824 64.6893 52.4662 64.8356 52.5189L65.0584 52.5996C65.4669 52.7475 65.5188 53.3052 65.1448 53.5264L55.2874 59.3548C55.1424 59.4404 54.9648 59.4494 54.8121 59.379Z" fill="#737373"/>
<path opacity="0.5" d="M72.5201 49.1643L72.4791 49.1453C72.1054 48.9732 72.0754 48.4525 72.427 48.2386L82.1024 42.3482C82.2354 42.2675 82.3973 42.2513 82.5436 42.3042L82.7664 42.385C83.1749 42.5328 83.2268 43.0903 82.8529 43.3115L72.9954 49.1399C72.8504 49.2258 72.6728 49.2348 72.5201 49.1643Z" fill="#737373"/>
<path opacity="0.5" d="M89.9718 39.135L89.9307 39.116C89.5571 38.944 89.527 38.4232 89.8786 38.2093L99.5541 32.3189C99.687 32.2382 99.849 32.222 99.9953 32.275L100.218 32.3557C100.627 32.5036 100.678 33.061 100.305 33.2822L90.4471 39.1106C90.3021 39.1965 90.1245 39.2055 89.9718 39.135Z" fill="#737373"/>
<path opacity="0.5" d="M57.6354 61.2012L57.5943 61.1824C57.2206 61.0102 57.1906 60.4897 57.5422 60.2758L67.2177 54.3854C67.3506 54.3046 67.5126 54.2884 67.6588 54.3412L67.8816 54.4219C68.2902 54.5698 68.342 55.1275 67.9681 55.3486L58.1107 61.177C57.9657 61.2627 57.7881 61.2717 57.6354 61.2012Z" fill="#737373"/>
<path opacity="0.5" d="M75.3434 50.9866L75.3023 50.9675C74.9286 50.7955 74.8986 50.2748 75.2502 50.0609L84.9257 44.1705C85.0586 44.0897 85.2206 44.0735 85.3668 44.1265L85.5896 44.2073C85.9982 44.3551 86.05 44.9126 85.6761 45.1337L75.8187 50.9621C75.6737 51.048 75.4961 51.057 75.3434 50.9866Z" fill="#737373"/>
<path opacity="0.5" d="M92.7946 40.957L92.7535 40.938C92.3799 40.766 92.3499 40.2453 92.7014 40.0313L102.377 34.1409C102.51 34.0602 102.672 34.044 102.818 34.097L103.041 34.1777C103.449 34.3256 103.501 34.8831 103.127 35.1042L93.2699 40.9326C93.1249 41.0185 92.9473 41.0275 92.7946 40.957Z" fill="#737373"/>
<path opacity="0.5" d="M44.2837 38.9924L44.2334 38.9692C43.8629 38.7985 43.8295 38.2837 44.1749 38.0664L63.6226 25.8269C63.7566 25.7426 63.9216 25.7248 64.0702 25.7788L64.3158 25.8675C64.7195 26.0138 64.7765 26.5623 64.4113 26.7886L44.7683 38.9625C44.622 39.053 44.44 39.0644 44.2837 38.9924Z" fill="#737373"/>
<path d="M40.0588 19.9728L38.8246 19.4041C38.4581 19.2352 38.4204 18.7283 38.7576 18.5067L42.0449 16.3476C42.1858 16.2551 42.3629 16.2377 42.5189 16.301L43.9663 16.888C44.3572 17.0465 44.4011 17.5836 44.041 17.8037L40.5405 19.9446C40.3947 20.0338 40.214 20.0444 40.0588 19.9728Z" fill="#737373"/>
<path d="M48.315 42.1386L45.7954 40.6804C45.4566 40.4842 45.4528 39.9953 45.7884 39.7937L55.0569 34.233C55.2111 34.1407 55.4023 34.1356 55.5612 34.2199L58.338 35.6949C58.6939 35.8839 58.7037 36.3912 58.3554 36.5938L48.8293 42.1378C48.6705 42.2304 48.4741 42.2307 48.315 42.1386Z" fill="#737373"/>
<path opacity="0.5" d="M60.5051 35.0548L57.9854 33.5965C57.6466 33.4003 57.6428 32.9115 57.9785 32.7099L67.2469 27.1492C67.4012 27.0568 67.5924 27.0517 67.7512 27.136L70.528 28.611C70.884 28.8 70.8937 29.3074 70.5455 29.5102L61.0194 35.0542C60.8605 35.1466 60.6642 35.1468 60.5051 35.0548Z" fill="#737373"/>
<path d="M56.2269 10.4594L54.9927 9.89063C54.6262 9.72173 54.5885 9.21483 54.9257 8.99327L58.213 6.83417C58.3539 6.74171 58.5309 6.72427 58.687 6.78758L60.1344 7.37459C60.5253 7.53311 60.5692 8.07016 60.2091 8.29027L56.7086 10.4311C56.5628 10.5204 56.3821 10.531 56.2269 10.4594Z" fill="#737373"/>
<path d="M47.502 15.7736L46.2763 15.2088C45.908 15.039 45.8723 14.5283 46.2134 14.3088L50.6435 11.4585C50.7836 11.3683 50.9589 11.3519 51.1134 11.4145L52.5605 12.0015C52.9519 12.1602 52.9953 12.6983 52.6342 12.9178L47.9826 15.746C47.8369 15.8346 47.6567 15.845 47.502 15.7736Z" fill="#737373"/>
</g>
<defs>
<clipPath id="clip0_663_360">
<rect width="116" height="72" fill="white"/>
</clipPath>
</defs>
</svg>
