<svg width="16" height="16" viewBox="0 0 16 16" fill="none" xmlns="http://www.w3.org/2000/svg">
<g clip-path="url(#clip0_654_482)">
<path d="M7.36475 0H8.50964C8.61559 0.0317366 8.81642 0.0229611 8.94633 0.0423144C9.34748 0.100368 9.74483 0.182298 10.1362 0.287669C12.1478 0.850252 13.8612 2.1742 14.9131 3.9788C15.3564 4.74058 15.6706 5.57045 15.843 6.43481C15.8672 6.56136 15.893 6.70241 15.9137 6.82698C15.9314 6.93311 15.9663 7.32509 16 7.39991V8.63117L15.9959 8.64533C15.9519 8.80117 15.9175 9.14336 15.8922 9.31469C15.8478 9.59786 15.7864 9.87811 15.7083 10.1539C15.3006 11.6016 14.4942 12.9055 13.3811 13.917C13.1016 14.1747 12.6601 14.5285 12.3357 14.7285L12.326 14.7171C12.2164 14.5873 11.9235 14.122 11.8201 13.9652L10.8059 12.4301L7.35859 7.208L6.43909 5.81434C6.29433 5.59547 6.1277 5.32753 5.96639 5.12681C5.87186 5.00917 5.23569 5.0172 5.11091 5.11319C5.0475 5.16195 5.0005 5.31252 5.00338 5.39244C5.00027 5.73675 5.00264 6.08498 5.00294 6.42945L5.00044 8.36691L5.00008 10.3265C5.00008 10.6675 4.9987 11.0098 5.00341 11.3491C5.00637 11.563 5.0695 11.7248 5.31616 11.7164C5.59811 11.7067 5.78119 11.7943 5.95602 11.5347C5.9843 11.177 5.96602 10.6213 5.96695 10.25C5.9625 9.41038 5.96972 8.57069 5.98864 7.73123C5.99425 7.49414 5.99114 7.02131 6.01525 6.80311C6.07248 6.95816 6.28855 7.24061 6.39389 7.3942C6.60241 7.69767 6.80937 8.00219 7.0148 8.30773L8.46094 10.4425C8.71816 10.8225 9.00455 11.2701 9.27111 11.6367L11.0493 14.0378C11.2854 14.3576 11.572 14.7229 11.7918 15.0474C11.0564 15.4295 10.4798 15.662 9.66222 15.8428C9.46281 15.8869 8.87678 15.9405 8.75895 16H7.31663C7.22459 15.9711 7.04069 15.9502 6.94056 15.9344C6.72253 15.9002 6.50139 15.8716 6.28527 15.8252C5.27325 15.6037 4.31409 15.1871 3.46145 14.5987C1.95841 13.5604 0.852753 12.0422 0.325759 10.293C0.153784 9.70478 0.10698 9.28003 0 8.69628V7.30305C0.0534695 7.10486 0.112477 6.61775 0.16178 6.37516C0.326411 5.56683 0.618711 4.78989 1.0277 4.07352C2.05856 2.23647 3.77406 0.881611 5.79998 0.304486C6.11967 0.213795 6.44425 0.141324 6.77214 0.0874233C6.8863 0.0695639 7.26988 0.0275827 7.35245 0.00366734L7.36475 0ZM10.7524 10.452C10.8128 10.5489 10.8398 10.5907 10.9153 10.6757C10.8833 10.2454 10.9106 9.52414 10.9142 9.0675C10.9287 8.11555 10.9285 7.16344 10.9137 6.2115C10.909 5.8285 10.9229 5.39816 10.8908 5.01594C10.8864 4.96327 10.8281 4.9023 10.7887 4.86536C10.5911 4.81605 10.5277 4.81287 10.3233 4.81903C10.2068 4.82595 10.0249 4.84616 9.98006 4.95363C9.9117 5.11744 9.93234 5.55097 9.92616 5.73323C9.90273 6.42261 9.9197 7.10822 9.91936 7.79508L9.91889 8.69266C9.91891 8.83836 9.90291 9.00739 9.92775 9.15039C9.94806 9.26728 10.629 10.2939 10.7524 10.452Z" fill="#FAFAFA"/>
</g>
<defs>
<clipPath id="clip0_654_482">
<rect width="16" height="16" fill="white"/>
</clipPath>
</defs>
</svg>
