<svg width="16" height="16" viewBox="0 0 16 16" fill="none" xmlns="http://www.w3.org/2000/svg">
<g clip-path="url(#clip0_840_526)">
<path d="M1 10.4501C1.072 10.4083 1.19567 9.87095 1.26577 9.77651C1.27941 9.75814 1.3043 9.64606 1.32298 9.62045C1.4558 9.3722 1.61232 9.12629 1.8167 8.92333C1.90985 8.83082 2.02148 8.69362 2.12558 8.61794C3.03567 7.95641 4.20686 7.81217 5.31784 7.98018C6.05907 8.09546 6.65765 8.40513 7.21468 8.87251C7.38021 9.00935 7.5407 9.15145 7.69587 9.29857C8.07177 9.65294 8.4614 10.0525 8.98789 10.2047C9.22991 10.2746 9.60175 10.2798 9.85442 10.2613C10.13 10.241 10.439 10.1134 10.6658 9.9715C10.7339 9.92752 10.9141 9.79092 10.9788 9.73786C11.1105 9.62999 11.1111 9.5934 11.2773 9.50242C11.3442 9.36046 11.3727 9.35514 11.4943 9.25391C11.454 9.36965 11.4136 9.48654 11.3763 9.60314C11.3403 9.71531 11.3138 9.82628 11.2666 9.93532C11.0293 10.4922 10.6229 10.9717 10.0978 11.3141C10.0111 11.3713 9.89567 11.4528 9.80183 11.4934C8.81921 11.9181 7.70178 11.9523 6.67208 11.6669C5.94611 11.4776 5.36889 11.0167 4.84893 10.5228C4.54226 10.2315 4.22337 9.91578 3.84103 9.7032C3.80153 9.68124 3.75733 9.66666 3.71512 9.64968C3.17951 9.43429 2.56281 9.45669 2.03458 9.68119C1.66358 9.83887 1.33421 10.1805 1.05808 10.4535C1.04581 10.466 1.01735 10.4785 1 10.4844V10.4501Z" fill="#36BCF8"/>
<path d="M7.58766 4H8.3878C8.47619 4.0254 8.69057 4.02601 8.80579 4.04468C9.16763 4.1033 9.54948 4.22512 9.87839 4.37836C9.95064 4.41203 10.0843 4.50442 10.1595 4.54604C10.2994 4.62341 10.4721 4.72645 10.5925 4.8287C10.6976 4.91796 10.8051 5.03681 10.914 5.13024C11.0426 5.24066 11.1757 5.346 11.2987 5.46147C11.3366 5.49702 11.3492 5.54027 11.3961 5.5824C11.5534 5.72405 11.7241 5.86559 11.9077 5.97654C11.9671 6.01245 12.0311 6.0721 12.0894 6.10473C12.3838 6.26944 12.6761 6.33487 13.0146 6.34585C13.3546 6.35689 13.6522 6.30911 13.9537 6.15722C14.1285 6.0692 14.2775 5.97414 14.4296 5.85611C14.4832 5.81443 14.5463 5.78033 14.5985 5.73265C14.7083 5.6324 14.8617 5.39027 15.0001 5.33403V5.38762C14.9316 5.43484 14.9014 5.64466 14.8656 5.72722C14.7396 6.01751 14.6426 6.31689 14.4424 6.57262C14.2967 6.75866 14.157 6.95255 13.9839 7.11782C13.9258 7.17306 13.8392 7.21867 13.7731 7.26945C13.3262 7.61298 12.8251 7.78666 12.2575 7.86363C11.4782 7.98569 10.5721 7.90811 9.83681 7.63248C9.45131 7.47063 9.04556 7.21367 8.73238 6.94918C8.54612 6.79187 8.37758 6.58845 8.17244 6.43955C8.11215 6.39578 8.0036 6.27168 7.9478 6.21595C7.27589 5.545 6.21158 5.33689 5.36444 5.85762C5.25633 5.92408 5.13928 5.97484 5.04419 6.06125C4.94769 6.14477 4.8509 6.22221 4.76114 6.31261C4.71754 6.35526 4.57874 6.54492 4.54049 6.55141C4.53981 6.5496 4.53906 6.54782 4.53847 6.54599C4.52843 6.5151 4.71849 5.91676 4.74234 5.85944C4.76329 5.80912 4.79624 5.76136 4.8222 5.71301C4.84734 5.66618 4.86831 5.6174 4.89302 5.57035C4.97929 5.4061 5.08019 5.2943 5.1972 5.15286C5.24589 5.094 5.28536 5.02913 5.3381 4.973C5.43882 4.8658 5.58294 4.73016 5.70229 4.64229C5.75209 4.60564 5.81148 4.57943 5.86426 4.54658C5.9271 4.50745 5.9868 4.4638 6.05107 4.42669C6.21222 4.33363 6.38368 4.27085 6.56019 4.20877C6.64714 4.1782 6.7347 4.14455 6.82481 4.12317C6.94667 4.09425 7.07414 4.0604 7.19832 4.04325C7.31382 4.02731 7.47507 4.03786 7.58095 4.00235C7.5832 4.00159 7.58543 4.00078 7.58766 4Z" fill="#36BCF8"/>
</g>
<defs>
<clipPath id="clip0_840_526">
<rect width="14" height="8" fill="white" transform="translate(1 4)"/>
</clipPath>
</defs>
</svg>
