<svg width="1499" height="484" viewBox="0 0 1499 484" fill="none" xmlns="http://www.w3.org/2000/svg">
<path d="M69.2034 221.692C63.3601 221.692 56.9785 221.308 50.0587 220.539C43.1389 219.923 36.3729 219.154 29.7607 218.231C23.3022 217.154 17.7664 216.231 13.1532 215.462L15.2292 190.308C19.9962 190.923 25.532 191.616 31.8366 192.385C38.1413 193 44.3691 193.538 50.52 194C56.8247 194.462 62.2835 194.692 66.8966 194.692C72.74 194.692 77.507 193.923 81.1976 192.385C84.8881 190.846 87.5791 188.538 89.2706 185.462C91.1159 182.231 92.0385 178.154 92.0385 173.231C92.0385 169.231 91.1929 166.077 89.5014 163.769C87.9637 161.308 85.1189 159.385 80.967 158C76.8152 156.462 71.0485 155 63.6674 153.616C54.4411 151.924 46.5219 149.923 39.9097 147.616C33.4512 145.308 28.146 142.462 23.9941 139.077C19.8423 135.539 16.7669 131.077 14.7679 125.693C12.9226 120.308 12 113.769 12 106.077C12 94.077 14.2296 84.6926 18.689 77.9234C23.1484 71.0003 29.53 66.0771 37.8337 63.154C46.1374 60.231 55.9021 58.7695 67.1275 58.7695C72.202 58.7695 77.9683 59.0772 84.4268 59.6926C91.039 60.1542 97.4977 60.7691 103.802 61.5384C110.261 62.3076 115.72 63.1541 120.179 64.0772L118.795 89.462C114.182 88.8466 108.8 88.3078 102.649 87.8463C96.6517 87.2309 90.6548 86.6927 84.6576 86.2312C78.8143 85.7697 73.8167 85.5387 69.6648 85.5387C63.9752 85.5387 59.2082 86.1542 55.3639 87.385C51.5195 88.6158 48.6747 90.5386 46.8295 93.154C44.9842 95.7694 44.0616 99.0769 44.0616 103.077C44.0616 107.692 44.9842 111.231 46.8295 113.692C48.6747 116.154 51.7501 118.154 56.0558 119.693C60.5152 121.231 66.5891 122.846 74.2778 124.538C83.3504 126.538 91.039 128.692 97.3436 131C103.802 133.308 108.954 136.077 112.798 139.308C116.796 142.539 119.718 146.693 121.563 151.769C123.408 156.846 124.331 163.231 124.331 170.923C124.331 183.231 122.101 193.154 117.642 200.693C113.336 208.077 107.031 213.462 98.7277 216.846C90.5778 220.077 80.7364 221.692 69.2034 221.692ZM141.784 219.154V103.308H172.461V219.154H141.784ZM141.784 84.8462V58.5388H172.692V84.8462H141.784ZM196.251 219.154V56H226.929V219.154H196.251ZM250.451 219.154V103.308H281.129V219.154H250.451ZM250.451 84.8462V58.5388H281.359V84.8462H250.451ZM318.759 219.154L296.615 103.308H329.369L344.362 193.077H347.822L366.505 105.846H396.029L415.405 193.077H418.865L433.857 103.308H464.535L443.084 219.154H396.721L380.345 144.615L363.968 219.154H318.759ZM509.395 221.692C497.4 221.692 488.328 218.693 482.177 212.693C476.18 206.539 473.181 197.308 473.181 185C473.181 176.385 474.719 169.692 477.794 164.923C480.87 160 485.406 156.462 491.403 154.308C497.554 152 505.012 150.615 513.777 150.154L541.918 147.616V140.693C541.918 135.154 540.534 131.308 537.766 129.154C534.998 126.847 530.923 125.693 525.541 125.693C521.235 125.693 516.238 125.846 510.548 126.154C505.012 126.462 499.477 126.846 493.941 127.308C488.559 127.769 483.868 128.231 479.87 128.692L478.948 107C482.946 106.077 487.713 105.154 493.249 104.231C498.938 103.154 504.859 102.308 511.01 101.692C517.16 101.077 522.85 100.769 528.078 100.769C537.919 100.769 546.147 102 552.759 104.462C559.371 106.923 564.369 111 567.752 116.692C571.135 122.231 572.826 129.769 572.826 139.308V192.154C573.134 194.308 574.287 196 576.286 197.231C578.285 198.308 580.592 199.077 583.206 199.539L582.514 220.77C580.053 220.77 577.593 220.77 575.133 220.77C572.826 220.924 570.596 220.924 568.443 220.77C566.291 220.77 564.368 220.616 562.677 220.308C559.14 219.846 556.065 218.923 553.451 217.538C550.99 216.154 548.991 214.692 547.454 213.154C544.993 214.231 541.687 215.462 537.535 216.846C533.383 218.231 528.847 219.385 523.926 220.308C519.159 221.231 514.315 221.692 509.395 221.692ZM516.776 198.846C519.697 198.846 522.773 198.539 526.002 197.923C529.232 197.308 532.23 196.616 534.998 195.846C537.919 194.923 540.226 194.077 541.918 193.308V166.769L518.39 168.846C513.316 169.308 509.626 170.846 507.319 173.462C505.166 175.923 504.09 179.462 504.09 184.077C504.09 188.692 505.089 192.308 507.088 194.923C509.241 197.539 512.47 198.846 516.776 198.846ZM597.146 219.154V103.308H627.824V110.692C630.284 109.154 633.283 107.692 636.82 106.308C640.356 104.769 644.047 103.462 647.891 102.385C651.889 101.308 655.733 100.769 659.424 100.769C667.42 100.769 674.032 101.846 679.261 104C684.643 106 688.872 109.308 691.947 113.923C695.023 118.538 697.252 124.616 698.636 132.154C700.02 139.539 700.712 148.539 700.712 159.154V219.154H669.804V160.769C669.804 152.769 669.342 146.385 668.42 141.615C667.497 136.692 665.729 133.154 663.115 131C660.5 128.846 656.656 127.769 651.582 127.769C648.814 127.769 645.892 128.077 642.817 128.692C639.895 129.154 637.05 129.846 634.282 130.769C631.668 131.692 629.515 132.616 627.824 133.539V219.154H597.146ZM772.847 272C760.545 272 750.243 271.077 741.939 269.231C733.789 267.385 727.638 264 723.486 259.077C719.334 254.308 717.258 247.385 717.258 238.308C717.258 234.308 717.797 230.693 718.873 227.462C720.103 224.385 721.948 221.462 724.409 218.693C727.023 215.924 730.252 213.077 734.096 210.154C731.944 208.616 730.175 206.385 728.791 203.462C727.561 200.385 726.946 197.077 726.946 193.539C726.946 192.308 727.484 190.692 728.561 188.692C729.637 186.538 730.944 184.308 732.482 182C734.019 179.692 735.481 177.615 736.864 175.769C733.789 174.385 730.867 172.385 728.099 169.77C725.331 167 723.025 163.308 721.179 158.692C719.488 154.077 718.642 148.154 718.642 140.923C718.642 131.077 720.488 123.231 724.178 117.385C728.023 111.539 733.558 107.308 740.786 104.693C748.013 102.077 756.778 100.769 767.081 100.769C771.079 100.769 775.384 101.077 779.997 101.692C784.611 102.308 788.301 102.923 791.069 103.539L828.667 102.846V123.616L811.137 123.385C812.521 125.231 813.751 127.616 814.827 130.539C816.057 133.308 816.672 136.77 816.672 140.923C816.672 151.539 814.827 159.77 811.137 165.616C807.6 171.462 802.218 175.538 794.99 177.846C787.763 180 778.614 181.077 767.542 181.077C766.312 181.077 764.62 181 762.468 180.846C760.315 180.539 758.546 180.308 757.162 180.154C756.547 181.692 755.932 183.462 755.317 185.462C754.702 187.308 754.394 188.616 754.394 189.385C754.394 191.077 754.702 192.385 755.317 193.308C756.086 194.231 757.393 195 759.238 195.616C761.237 196.077 764.082 196.385 767.773 196.539C771.617 196.693 776.692 196.769 782.996 196.769C793.914 196.769 802.602 197.77 809.061 199.77C815.673 201.77 820.363 205.308 823.131 210.385C825.899 215.462 827.283 222.616 827.283 231.846C827.283 245.539 822.439 255.616 812.751 262.077C803.217 268.693 789.916 272 772.847 272ZM771.233 249.154C780.766 249.154 787.609 248 791.761 245.693C796.067 243.539 798.22 239.924 798.22 234.847C798.22 230.847 797.451 227.923 795.913 226.077C794.529 224.231 792.146 223 788.763 222.385C785.38 221.923 780.767 221.692 774.923 221.692C773.385 221.692 771.54 221.616 769.387 221.462C767.235 221.462 765.005 221.385 762.698 221.231C760.545 221.231 758.546 221.154 756.701 221C755.01 220.847 753.779 220.77 753.01 220.77C750.858 222.308 749.089 223.77 747.705 225.154C746.475 226.539 745.553 227.924 744.938 229.308C744.476 230.847 744.245 232.693 744.245 234.847C744.245 238.385 745.091 241.154 746.783 243.154C748.474 245.308 751.242 246.847 755.086 247.77C759.085 248.693 764.467 249.154 771.233 249.154ZM767.311 159.385C774.385 159.385 779.383 158 782.304 155.231C785.38 152.308 786.917 147.539 786.917 140.923C786.917 134.308 785.38 129.538 782.304 126.615C779.383 123.692 774.385 122.231 767.311 122.231C760.545 122.231 755.625 123.692 752.549 126.615C749.628 129.538 748.167 134.308 748.167 140.923C748.167 147.539 749.628 152.308 752.549 155.231C755.625 158 760.545 159.385 767.311 159.385ZM842.092 219.154V103.308H872.77V219.154H842.092ZM842.092 84.8462V58.5388H873V84.8462H842.092Z" fill="#F48814"/>
<path d="M259.195 404.694C253.455 404.694 247.186 404.316 240.388 403.561C233.59 402.957 226.943 402.202 220.448 401.295C214.103 400.238 208.665 399.331 204.133 398.575L206.172 373.877C210.855 374.481 216.293 375.161 222.487 375.916C228.68 376.52 234.798 377.05 240.841 377.503C247.034 377.956 252.397 378.183 256.929 378.183C262.669 378.183 267.352 377.427 270.978 375.916C274.603 374.405 277.247 372.14 278.908 369.118C280.721 365.946 281.627 361.943 281.627 357.109C281.627 353.182 280.797 350.085 279.135 347.819C277.624 345.402 274.83 343.514 270.751 342.154C266.673 340.644 261.008 339.208 253.757 337.849C244.693 336.187 236.913 334.224 230.418 331.958C224.073 329.692 218.861 326.897 214.783 323.574C210.704 320.099 207.683 315.719 205.719 310.431C203.906 305.144 203 298.724 203 291.171C203 279.388 205.19 270.173 209.571 263.527C213.952 256.729 220.221 251.895 228.378 249.025C236.536 246.154 246.128 244.719 257.156 244.719C262.141 244.719 267.805 245.022 274.15 245.626C280.646 246.079 286.99 246.683 293.184 247.439C299.529 248.194 304.891 249.024 309.272 249.93L307.912 274.856C303.381 274.252 298.093 273.723 292.051 273.27C286.159 272.666 280.268 272.137 274.377 271.684C268.636 271.231 263.727 271.004 259.648 271.004C254.059 271.004 249.376 271.608 245.599 272.817C241.823 274.025 239.028 275.914 237.215 278.482C235.403 281.05 234.496 284.297 234.496 288.225C234.496 292.757 235.403 296.231 237.215 298.648C239.028 301.065 242.049 303.029 246.279 304.54C250.66 306.05 256.627 307.637 264.18 309.299C273.092 311.262 280.646 313.377 286.839 315.643C293.184 317.909 298.244 320.628 302.021 323.801C305.948 326.973 308.819 331.051 310.631 336.036C312.444 341.021 313.351 347.29 313.351 354.843C313.351 366.928 311.16 376.671 306.779 384.073C302.549 391.324 296.356 396.612 288.199 399.935C280.192 403.108 270.525 404.694 259.195 404.694ZM368.827 404.92C360.519 404.92 353.796 403.712 348.66 401.295C343.524 398.878 339.823 394.724 337.557 388.832C335.442 382.79 334.385 374.406 334.385 363.681V313.603H321.016V288.452H334.385V258.315H364.521V288.452H393.525V313.603H364.521V355.749C364.521 361.641 364.748 366.248 365.201 369.571C365.806 372.895 367.014 375.236 368.827 376.596C370.64 377.955 373.434 378.636 377.211 378.636C378.268 378.636 379.854 378.56 381.969 378.409C384.084 378.258 386.199 378.107 388.314 377.956C390.429 377.805 392.166 377.654 393.525 377.503L394.432 401.748C392.166 402.201 389.371 402.654 386.048 403.107C382.875 403.56 379.703 403.938 376.531 404.24C373.51 404.693 370.942 404.92 368.827 404.92ZM443.914 404.694C434.095 404.694 426.466 402.654 421.028 398.575C415.741 394.346 411.964 388.001 409.698 379.542C407.584 371.082 406.526 360.432 406.526 347.592V288.452H436.663V346.233C436.663 354.239 437.041 360.584 437.796 365.267C438.702 369.95 440.44 373.273 443.008 375.237C445.576 377.201 449.277 378.183 454.111 378.183C458.794 378.183 463.174 377.579 467.253 376.37C471.332 375.162 474.58 373.953 476.997 372.744V288.452H507.133V402.201H477.223V395.177C472.087 398.047 466.951 400.388 461.815 402.201C456.83 403.863 450.863 404.694 443.914 404.694ZM567.595 404.694C562.156 404.694 557.171 404.014 552.64 402.654C548.108 401.446 544.105 399.482 540.63 396.763C537.307 393.892 534.436 390.192 532.019 385.66C529.754 381.129 528.017 375.614 526.808 369.118C525.6 362.472 524.995 354.768 524.995 346.006C524.995 333.015 526.581 322.063 529.754 313.15C533.077 304.238 538.289 297.515 545.389 292.984C552.488 288.301 561.93 285.959 573.713 285.959C575.979 285.959 578.622 286.11 581.643 286.412C584.665 286.563 587.61 286.866 590.481 287.319C593.351 287.621 595.692 287.923 597.505 288.225V242H627.868V402.201H597.958L597.732 395.63C595.617 396.838 592.822 398.198 589.348 399.708C586.024 401.068 582.474 402.201 578.698 403.107C574.921 404.165 571.22 404.694 567.595 404.694ZM575.299 379.316C578.018 379.316 580.737 379.013 583.456 378.409C586.326 377.805 588.97 377.125 591.387 376.37C593.955 375.464 595.994 374.632 597.505 373.877V312.923C596.145 312.621 594.333 312.395 592.067 312.244C589.801 311.942 587.459 311.715 585.042 311.564C582.625 311.262 580.435 311.111 578.471 311.111C572.58 311.111 567.972 312.471 564.649 315.19C561.477 317.909 559.211 321.912 557.851 327.199C556.492 332.335 555.812 338.604 555.812 346.006C555.812 352.502 556.265 357.94 557.171 362.321C558.078 366.551 559.362 369.949 561.024 372.517C562.836 374.934 564.951 376.671 567.368 377.729C569.785 378.786 572.429 379.316 575.299 379.316ZM650.057 402.201V288.452H680.193V402.201H650.057ZM650.057 270.324V244.493H680.42V270.324H650.057ZM751.602 404.694C738.762 404.694 728.414 402.579 720.559 398.35C712.855 394.12 707.265 387.623 703.791 378.862C700.317 369.949 698.579 358.469 698.579 344.42C698.579 330.825 700.392 319.797 704.017 311.337C707.643 302.727 713.383 296.382 721.239 292.304C729.094 288.074 739.215 285.959 751.602 285.959C764.14 285.959 774.261 288.074 781.966 292.304C789.821 296.382 795.561 302.727 799.187 311.337C802.963 319.797 804.852 330.825 804.852 344.42C804.852 358.469 803.114 369.949 799.64 378.862C796.165 387.623 790.5 394.12 782.645 398.35C774.941 402.579 764.593 404.694 751.602 404.694ZM751.602 379.769C757.947 379.769 762.705 378.636 765.877 376.37C769.05 373.953 771.165 370.176 772.222 365.04C773.431 359.753 774.035 352.88 774.035 344.42C774.035 336.112 773.355 329.54 771.995 324.706C770.636 319.721 768.37 316.171 765.198 314.056C762.025 311.941 757.493 310.884 751.602 310.884C745.862 310.884 741.33 311.941 738.006 314.056C734.834 316.171 732.568 319.721 731.209 324.706C729.849 329.54 729.169 336.112 729.169 344.42C729.169 352.88 729.698 359.753 730.755 365.04C731.964 370.176 734.154 373.953 737.327 376.37C740.499 378.636 745.257 379.769 751.602 379.769Z" fill="black"/>
<path d="M1476.09 56C1486.98 56.0001 1494.69 66.6442 1491.3 76.9912L1379.67 416.991C1377.51 423.56 1371.38 428 1364.47 428H847.016C835.644 428 827.902 416.47 832.206 405.944L971.242 65.9443C973.701 59.93 979.553 56 986.051 56H1476.09Z" fill="#F48814"/>
<path d="M982.47 10.4633C998.524 11.9914 1017.77 23.7287 1031.54 32.0413C1038.1 35.9187 1044.62 39.8588 1051.11 43.8606C1055.45 46.554 1060.75 50.0954 1065.15 52.4501C1068.03 51.1763 1070.99 49.6241 1073.85 48.2463C1086.54 42.124 1098.46 38.7956 1112.22 35.9989C1151.16 28.1185 1191.42 29.6048 1229.68 40.3352C1236.08 42.1791 1242.3 44.8042 1248.4 47.4508C1251.97 48.9993 1255.69 51.2675 1259.34 52.4667C1262.27 50.7202 1265.88 47.9072 1269.06 45.8991C1277.41 40.7124 1285.85 35.681 1294.38 30.8074C1307.83 22.9541 1322.73 13.7287 1338.11 10.8491C1341.22 10.2663 1344.94 11.2023 1347.39 13.3271C1357.65 22.25 1360.89 37.9994 1362.97 50.9048C1364.22 59.453 1363.2 67.2471 1361.64 75.4179C1357.58 96.7033 1349.07 110.265 1336.1 127.025C1340.96 132.04 1349.34 144.067 1353.52 149.957C1369.57 172.596 1381.12 197.7 1386.75 224.947C1388.52 233.514 1389.82 239.84 1390.66 248.752C1391.59 258.512 1391.06 266.703 1391.23 276.279C1387.12 272.713 1384.47 268.703 1380.1 265.512C1380.3 271.033 1380.84 276.615 1380.89 282.126C1381.2 314.063 1369.27 345.694 1347.56 369.18C1344.89 372.075 1341.78 375.866 1338.28 377.728C1338.26 371.834 1338.5 364.808 1337.64 359.044C1337.32 356.966 1335.95 352.864 1335.3 350.666C1332.18 354.034 1329.07 357.73 1325.77 360.956C1316.22 370.291 1304.57 377.648 1293.18 384.544C1276.67 395.112 1263.49 402.854 1250.89 418.624C1246.37 424.28 1234.34 440.747 1229.27 444.727C1229.34 441.194 1229.49 436.64 1229.06 433.185C1215.4 446.658 1198.6 455.707 1181.86 464.786C1175.89 468.022 1168.4 472.172 1162.09 474.4C1156.6 472.536 1149.92 468.875 1144.73 466.195C1131.36 459.294 1118.25 451.734 1106.07 442.876C1102.16 440.031 1098.87 436.46 1095.15 433.456C1094.94 437.042 1095.06 441.239 1095.23 444.826C1092.03 442.196 1087.34 436.129 1084.69 432.792C1077.33 423.495 1070.09 413.416 1061.16 405.52C1044.22 390.535 1023.37 381.211 1005.65 367.407C999.775 362.835 994.074 356.13 988.762 350.765C985.802 361.31 985.622 367.467 985.758 378.193C980.675 374.4 976.152 368.814 972.07 363.957C948.8 336.262 940.741 300.843 944.103 265.255C940.516 268.556 937.313 272.649 933.325 276.31C933.15 274.854 933 273.396 932.874 271.936C932.083 262 933.411 251.169 934.731 241.404C939.549 205.77 952.984 173.331 974.448 144.485C978.776 138.669 982.96 132.715 987.733 127.099C985.504 123.932 982.928 120.795 980.683 117.594C974.895 109.344 969.246 99.3778 966.184 89.7179C963.667 81.7751 960.94 69.4109 960.642 61.0522C960.232 49.5506 963.619 33.3768 968.934 23.0749C971.963 17.2045 976.027 12.4787 982.47 10.4633Z" fill="#03151E"/>
<path d="M1263.66 74.6657C1275.14 64.2127 1322 31.4644 1335.98 29.074C1342.77 36.1581 1345.91 51.272 1345.62 60.8629C1345.09 78.5419 1337.93 97.3709 1324.99 109.634C1324.78 109.834 1324.57 110.03 1324.35 110.222C1322.66 108.527 1320.97 106.846 1319.58 104.888C1325.55 97.1462 1327.85 94.0252 1331.27 84.586C1324.38 88.2269 1323.38 88.3467 1315.31 87.9003C1327.03 77.2632 1334.41 65.3645 1331.03 49.0002C1320.6 55.7401 1292.76 83.1298 1286.78 94.1583C1300.08 108.458 1313.82 122.76 1326.08 138.018C1341.01 156.594 1353.93 177.977 1362.3 200.358C1364.54 206.339 1366.22 212.549 1367.9 218.701C1369.43 224.422 1370.97 229.713 1372.1 235.572C1367.67 232.162 1363.55 229.107 1358.57 226.552C1357.59 226.053 1356.51 225.403 1355.6 224.804C1357.81 227.991 1358.63 230.763 1360.09 234.302C1367.54 252.401 1367.6 274.365 1364.55 293.425C1363.98 297.041 1362.18 304.005 1360.62 307.111C1359.76 304.407 1359.3 301.221 1358.33 298.402C1354.69 287.893 1350.03 279.229 1341.31 272.229C1341.87 269.83 1343.74 266.32 1344.51 263.645C1351.58 239.181 1350.15 209.034 1331.03 190.202C1329.93 189.121 1328.49 188.165 1328.46 186.596C1327 187.68 1325 189.171 1323.74 190.507C1323.54 196.439 1322.77 200.786 1322.13 206.546C1336.47 236.966 1328.9 278.78 1296.69 294.392C1302.66 285.503 1308.03 274.946 1307.44 264.016C1292.71 280.42 1278.03 284.218 1256.32 280.375C1264.36 291.14 1269.87 302.769 1269.52 316.424C1265.61 317.438 1262.42 318.674 1258.67 320.118C1260.08 312.568 1258.13 309.899 1254.29 304.098C1253.94 304.882 1253.46 305.976 1253.01 306.683C1246.8 316.405 1225.44 318.44 1215.54 315.678L1210.54 314.607C1210.07 309.599 1210.03 305.731 1209.87 300.784C1212.48 294.049 1211.66 288.84 1210.81 281.871C1209.29 283.936 1208.58 285.914 1207.24 287.985C1201.35 284.253 1195.99 281.902 1188.84 282.478C1179.42 283.223 1171.36 288.779 1161.74 288.597C1153.9 288.45 1147.14 285.087 1139.71 283.116C1131.51 280.937 1123.81 283.608 1116.81 287.904C1115.79 286.231 1115.01 283.554 1114.26 281.599C1112.38 287.538 1111.85 291.541 1113.46 297.769C1113.81 299.092 1114.63 301.032 1114.87 301.971L1114.85 302.19C1114.69 303.547 1114.58 306.227 1114.67 307.621C1115.09 313.841 1114.83 314.555 1108.51 315.971C1107.39 316.264 1103.76 316.573 1102.53 316.644C1093.31 317.159 1084.8 315.919 1076.46 311.788C1073.1 310.126 1071.37 307.846 1070.25 304.334C1064.98 310.339 1064.79 311.582 1065.18 319.943C1063.14 319.39 1056.76 316.793 1054.66 315.902C1053.54 307.52 1057.89 296.54 1061.99 289.256C1063.31 286.912 1066.1 283.071 1067.71 280.687C1062.28 280.876 1059.06 282.02 1052.77 281.644C1035.85 280.635 1027.69 275.469 1016.73 263.768C1016.45 273.892 1020.95 286.503 1027.4 294.195C1026.93 293.999 1026.46 293.791 1026 293.571C1012.19 286.942 1003.42 274.327 998.507 260.07C993.986 246.946 994.607 230.527 998.223 217.128C999.051 214.061 1000.8 210.381 1002.2 207.499C1002.16 202.685 1000.71 196.378 1000.6 190.483C999.226 189.251 997.763 188.024 996.362 186.816C981.131 201.944 975.968 214.234 975.802 235.975C975.7 249.357 977.802 259.878 982.847 272.33C974.528 280.094 970.33 287.07 966.367 297.785C965.48 300.184 964.41 304.724 963.36 306.799C961.54 301.285 960.197 297.469 959.309 291.619C956.67 274.249 956.93 254.882 962.789 238.179C964.816 232.4 965.285 229.945 968.983 224.859C960.961 228.899 959.071 229.924 951.99 235.67C953.908 225.948 957.192 213.801 960.33 204.358C967.991 181.303 981.04 160.09 995.931 141.002C1000.06 135.633 1004.35 130.393 1008.8 125.29C1014.02 119.49 1019.32 113.767 1024.7 108.125C1029 103.65 1033.71 99.0139 1037.61 94.257C1035.74 90.7521 1033.18 87.8939 1030.68 84.8647C1021.84 74.1616 1011.55 64.8054 1001.11 55.7084C998.559 53.4848 996.135 51.3349 993.244 49.5346C992.806 51.8881 992.309 54.773 992.408 57.1975C992.749 65.5328 996.854 74.5482 1002.07 80.9265C1004.01 83.308 1006.71 85.7911 1008.93 87.9152C1001.63 88.1291 999.009 88.3392 992.844 84.4026C996.614 94.3098 997.937 96.5114 1004.73 104.838C1003.32 106.812 1001.78 108.69 1000.12 110.461C999.655 110.079 999.199 109.686 998.752 109.282C983.867 95.7199 975.62 68.5762 979.582 49.0439C980.984 42.1313 983.449 34.4481 988.263 29.1425C1006.82 33.5127 1045.39 63.0372 1060.96 75.0674C1062.05 74.1755 1063.19 73.3406 1064.36 72.5654C1082.57 60.6198 1111.08 49.73 1132.91 48.5614C1140.22 48.1972 1147.55 48.7989 1154.7 50.3506C1148.49 51.5934 1141.97 53.5585 1135.81 55.1611C1115.09 60.5534 1096.59 68.7341 1081.41 84.1822C1078.87 86.7633 1075.31 91.4537 1073 94.3901C1088.2 83.6967 1112.94 73.9948 1131.27 70.6984C1138.3 69.4336 1146.05 69.4726 1153.18 69.5308C1150.41 82.2986 1147.47 80.1038 1136.19 83.5112C1118.54 88.8402 1104.44 98.8232 1092.71 112.965C1097.79 110.007 1102.5 108.735 1107.94 106.746C1118.3 102.953 1128.93 99.8573 1139.73 97.5371C1143.29 96.7711 1148.23 96.5934 1151.91 96.4379C1151.42 99.3074 1150.23 106.222 1148.16 108.184C1145.65 110.554 1139.11 112.889 1135.87 114.822C1124.83 121.408 1115.45 131.447 1113.38 144.533C1113.09 146.339 1113.21 148.765 1113.24 150.616C1116.43 145.704 1120.76 139.513 1125.6 135.839C1131.17 131.609 1157.39 119.642 1163.22 120.994C1174.23 123.549 1190.18 129.952 1199.4 136.711C1203.03 139.367 1208.58 146.845 1211.47 150.762C1210.37 134.971 1201.71 122.939 1187.95 115.473C1175.8 108.879 1174.21 111.114 1172.17 96.5615C1180 96.5917 1185.12 97.7755 1192.58 99.6073C1201.38 101.768 1209.66 104.175 1218.14 107.442C1222.79 109.235 1226.93 110.427 1231.3 112.968C1228.31 109.983 1225.59 106.642 1222.63 103.691C1212.4 93.4802 1199 86.9644 1185.25 82.9454C1182.21 82.0571 1178.25 81.3561 1175.65 79.625C1172.6 77.603 1172.29 73.0776 1171.82 69.7456C1193.87 66.9371 1224 78.8097 1243.21 89.1318C1244.21 88.6488 1245.14 88.7163 1245.84 88.2704C1245.7 87.5201 1245.55 87.24 1245.24 86.5575C1242.82 83.4429 1240.18 81.4235 1237.31 78.8738C1222.56 65.7436 1203.71 58.9251 1184.83 54.2247C1180.76 53.2132 1174.07 50.9454 1170.09 50.313C1176.57 49.0789 1181.4 48.312 1188.07 48.4782C1213.55 49.112 1242.68 60.9868 1263.66 74.6657Z" fill="#03151E"/>
<path d="M1263.66 74.6657C1275.14 64.2127 1322 31.4644 1335.98 29.074C1342.77 36.1581 1345.91 51.272 1345.62 60.8629C1345.09 78.5419 1337.93 97.3709 1324.99 109.634C1324.78 109.834 1324.57 110.03 1324.35 110.222C1322.66 108.527 1320.97 106.846 1319.58 104.888C1325.55 97.1462 1327.85 94.0252 1331.27 84.586C1324.38 88.2269 1323.38 88.3467 1315.31 87.9003C1327.03 77.2632 1334.41 65.3645 1331.03 49.0002C1320.6 55.7401 1292.76 83.1298 1286.78 94.1583C1300.08 108.458 1313.82 122.76 1326.08 138.018C1341.01 156.594 1353.93 177.977 1362.3 200.357C1364.54 206.339 1366.22 212.548 1367.9 218.701C1369.43 224.422 1370.97 229.713 1372.1 235.572C1367.67 232.162 1363.55 229.107 1358.57 226.552C1357.59 226.053 1356.51 225.403 1355.6 224.804C1357.81 227.991 1358.63 230.763 1360.09 234.302C1367.54 252.401 1367.6 274.365 1364.55 293.425C1363.98 297.041 1362.18 304.005 1360.62 307.111C1359.76 304.407 1359.3 301.221 1358.33 298.402C1354.69 287.892 1350.03 279.229 1341.31 272.229C1341.87 269.83 1343.74 266.32 1344.51 263.645C1351.58 239.181 1350.15 209.034 1331.03 190.202C1329.93 189.121 1328.49 188.165 1328.46 186.596C1329.91 185.421 1332.26 183.62 1332.57 181.791C1333.78 174.593 1334.09 165.766 1333.94 158.489C1327.91 154.525 1319.6 152.89 1312.73 151.128C1307.94 150.265 1303.17 149.042 1298.38 148.274C1293.53 147.494 1288.43 146.973 1283.52 146.671C1278.6 146.499 1273.68 146.459 1268.76 146.55C1266.02 126.107 1240.15 117.958 1223.96 128.67C1226.81 129.038 1229.18 129.745 1231.85 130.598C1240.25 133.283 1243.6 135.936 1248.95 142.685C1234.52 144.645 1221.9 147.985 1209.49 155.739C1205.3 158.364 1201.18 160.584 1197.7 164.235C1196.56 165.445 1192.26 168.933 1192.05 170.329C1189.64 171.877 1187.38 173.261 1185.15 175.055L1184.89 175.266L1184.73 175.394C1171.06 171.573 1151.96 171.611 1138.51 176.198C1136.43 174.16 1135.14 173.177 1133.07 171.323C1133.02 170.783 1132.62 170.17 1132.26 169.779C1117.21 153.514 1096.91 145.219 1075.48 142.66C1083.98 132.214 1087.99 132.855 1100.12 128.332C1083.65 117.973 1058.22 126.074 1055.18 146.547C1050.25 146.497 1045.32 146.524 1040.39 146.626C1035.08 147.096 1029.27 147.658 1024 148.561C1019.49 149.334 1015.3 150.501 1010.68 151.138C1003.46 152.909 996.196 154.322 990.169 159.044C990.175 163.902 989.707 180.375 993.117 183.821C994.147 184.862 995.31 185.789 996.362 186.816C981.131 201.944 975.968 214.234 975.802 235.975C975.7 249.357 977.802 259.878 982.847 272.33C974.528 280.094 970.33 287.07 966.367 297.785C965.48 300.184 964.41 304.724 963.36 306.799C961.54 301.285 960.197 297.468 959.309 291.619C956.67 274.249 956.93 254.882 962.789 238.179C964.816 232.4 965.285 229.945 968.983 224.859C960.961 228.899 959.071 229.924 951.99 235.67C953.908 225.948 957.192 213.801 960.33 204.358C967.991 181.303 981.04 160.09 995.931 141.002C1000.06 135.633 1004.35 130.393 1008.8 125.29C1014.02 119.49 1019.32 113.767 1024.7 108.125C1029 103.65 1033.71 99.0139 1037.61 94.257C1035.74 90.7521 1033.18 87.8939 1030.68 84.8647C1021.84 74.1616 1011.55 64.8054 1001.11 55.7084C998.559 53.4848 996.135 51.3349 993.244 49.5346C992.806 51.8881 992.309 54.773 992.408 57.1975C992.749 65.5328 996.854 74.5482 1002.07 80.9265C1004.01 83.308 1006.71 85.7911 1008.93 87.9152C1001.63 88.1291 999.009 88.3392 992.844 84.4026C996.614 94.3097 997.937 96.5114 1004.73 104.838C1003.32 106.812 1001.78 108.69 1000.12 110.461C999.655 110.079 999.199 109.686 998.752 109.282C983.867 95.7199 975.62 68.5762 979.582 49.0439C980.984 42.1313 983.449 34.4481 988.263 29.1425C1006.82 33.5127 1045.39 63.0372 1060.96 75.0674C1062.05 74.1755 1063.19 73.3406 1064.36 72.5654C1082.57 60.6198 1111.08 49.73 1132.91 48.5614C1140.22 48.1972 1147.55 48.7989 1154.7 50.3506C1148.49 51.5934 1141.97 53.5585 1135.81 55.1611C1115.09 60.5534 1096.59 68.7341 1081.41 84.1821C1078.87 86.7633 1075.31 91.4537 1073 94.3901C1088.2 83.6967 1112.94 73.9947 1131.27 70.6984C1138.3 69.4336 1146.05 69.4726 1153.18 69.5308C1150.41 82.2986 1147.47 80.1038 1136.19 83.5112C1118.54 88.8402 1104.44 98.8232 1092.71 112.965C1097.79 110.007 1102.5 108.735 1107.94 106.746C1118.3 102.953 1128.93 99.8573 1139.73 97.537C1143.29 96.7711 1148.23 96.5934 1151.91 96.4379C1151.42 99.3074 1150.23 106.222 1148.16 108.184C1145.65 110.554 1139.11 112.889 1135.87 114.822C1124.83 121.408 1115.45 131.447 1113.38 144.533C1113.09 146.339 1113.21 148.765 1113.24 150.616C1116.43 145.704 1120.76 139.513 1125.6 135.839C1131.17 131.609 1157.39 119.642 1163.22 120.994C1174.23 123.549 1190.18 129.952 1199.4 136.711C1203.03 139.367 1208.58 146.845 1211.47 150.762C1210.37 134.971 1201.71 122.939 1187.95 115.473C1175.8 108.879 1174.21 111.114 1172.17 96.5615C1180 96.5917 1185.12 97.7755 1192.58 99.6073C1201.38 101.768 1209.66 104.175 1218.14 107.442C1222.79 109.235 1226.93 110.427 1231.3 112.968C1228.31 109.983 1225.59 106.642 1222.63 103.691C1212.4 93.4802 1199 86.9644 1185.25 82.9454C1182.21 82.0571 1178.25 81.3561 1175.65 79.625C1172.6 77.603 1172.29 73.0776 1171.82 69.7456C1193.87 66.937 1224 78.8097 1243.21 89.1318C1244.21 88.6488 1245.14 88.7163 1245.84 88.2704C1245.7 87.52 1245.55 87.24 1245.24 86.5575C1242.82 83.4429 1240.18 81.4235 1237.31 78.8737C1222.56 65.7436 1203.71 58.9251 1184.83 54.2247C1180.76 53.2132 1174.07 50.9454 1170.09 50.313C1176.57 49.0789 1181.4 48.312 1188.07 48.4782C1213.55 49.112 1242.68 60.9868 1263.66 74.6657Z" fill="#F48814"/>
<path d="M1263.21 102.005C1270.18 106.25 1277.35 111.013 1283.39 116.486C1292.41 124.665 1300.99 133.718 1307.96 143.726C1309.1 145.377 1312.07 149.378 1312.73 151.128C1307.94 150.265 1303.17 149.042 1298.38 148.274C1293.53 147.494 1288.43 146.973 1283.52 146.671C1280.65 132.219 1272.7 113.329 1263.21 102.005Z" fill="#03151E"/>
<path d="M1010.68 151.138C1013.62 147.103 1016.56 142.562 1019.65 138.654C1028.32 127.66 1038.46 117.299 1049.72 108.947C1052.89 106.596 1057.17 104.078 1060.55 102.091C1050.86 112.749 1042.72 132.453 1040.39 146.626C1035.08 147.096 1029.27 147.658 1024 148.561C1019.49 149.334 1015.3 150.501 1010.68 151.138Z" fill="#03151E"/>
<path d="M1245.24 86.5575C1247.29 88.7518 1249.4 91.5005 1251.3 93.874C1248.66 92.1755 1245.94 90.6753 1243.21 89.1318C1244.21 88.6488 1245.14 88.7163 1245.84 88.2704C1245.7 87.5201 1245.55 87.24 1245.24 86.5575Z" fill="#302E2F"/>
<path d="M1143.62 198.696C1154.46 188.294 1169.78 188.955 1180.74 198.814C1183.84 213.26 1188.85 227.225 1195.66 240.334C1200.03 248.612 1205.08 254.133 1207.1 263.685C1207.84 267.164 1209.97 272.657 1211.32 276.034C1211.51 268.45 1211.22 264.416 1209.17 257.158C1223.56 265.389 1228.66 266.911 1245.35 268.49C1247.91 270.905 1251.16 272.484 1254.65 273.013C1266.42 274.779 1287.7 269.395 1297.16 262.166C1313.18 249.924 1319.38 225.473 1322.13 206.546C1336.47 236.966 1328.9 278.78 1296.69 294.392C1302.66 285.503 1308.03 274.947 1307.44 264.016C1292.71 280.42 1278.03 284.218 1256.32 280.375C1264.36 291.14 1269.87 302.769 1269.52 316.424C1265.61 317.438 1262.42 318.674 1258.67 320.118C1260.08 312.568 1258.13 309.899 1254.29 304.098C1253.94 304.882 1253.46 305.976 1253.01 306.683C1246.8 316.406 1225.44 318.44 1215.54 315.678L1210.54 314.607C1210.07 309.599 1210.03 305.731 1209.87 300.784C1212.48 294.049 1211.66 288.84 1210.81 281.871C1209.29 283.936 1208.58 285.914 1207.24 287.985C1201.35 284.253 1195.99 281.902 1188.84 282.478C1179.42 283.223 1171.36 288.779 1161.74 288.597C1153.9 288.45 1147.14 285.087 1139.71 283.116C1131.51 280.937 1123.81 283.608 1116.81 287.904C1115.79 286.231 1115.01 283.554 1114.26 281.599C1112.38 287.538 1111.85 291.541 1113.46 297.769C1113.81 299.092 1114.63 301.032 1114.87 301.971L1114.85 302.19C1114.69 303.547 1114.58 306.227 1114.67 307.621C1115.09 313.841 1114.83 314.555 1108.51 315.971C1107.39 316.264 1103.76 316.573 1102.53 316.644C1093.31 317.159 1084.8 315.919 1076.46 311.788C1073.1 310.126 1071.37 307.846 1070.25 304.334C1064.98 310.339 1064.79 311.582 1065.18 319.943C1063.14 319.39 1056.76 316.793 1054.66 315.902C1053.54 307.52 1057.89 296.54 1061.99 289.256C1063.31 286.912 1066.1 283.071 1067.71 280.687C1062.28 280.876 1059.06 282.02 1052.77 281.644C1035.85 280.635 1027.69 275.469 1016.73 263.768C1016.45 273.892 1020.95 286.503 1027.4 294.195C1026.93 293.999 1026.46 293.791 1026 293.572C1012.19 286.943 1003.42 274.327 998.507 260.07C993.986 246.946 994.607 230.527 998.223 217.128C999.051 214.061 1000.8 210.381 1002.2 207.499C1004.94 225.845 1011.64 250.262 1027.24 261.856C1036.99 269.109 1056.47 274.795 1068.74 272.94C1072.8 272.328 1075.19 271.248 1078.3 268.615C1081.3 268.247 1084.27 268.221 1087.34 267.781C1097.16 266.356 1106.54 262.745 1114.77 257.215C1112.94 264.898 1112.85 268.495 1112.88 276.253C1114.23 272.73 1115.08 270.291 1116.12 266.706C1116.96 263.801 1118.44 257.569 1119.65 255.175C1122 250.534 1125.47 245.717 1128.05 241.031C1135.36 227.792 1140.61 213.516 1143.62 198.696Z" fill="#F48814"/>
<path d="M1070.25 304.334C1069.41 298.733 1069.87 296.067 1072.18 290.948C1072.78 292.707 1073.59 295.372 1074.45 296.96C1080.21 307.713 1097.16 314.125 1108.51 315.971C1107.39 316.264 1103.76 316.573 1102.53 316.644C1093.31 317.159 1084.8 315.919 1076.46 311.788C1073.1 310.126 1071.37 307.846 1070.25 304.334Z" fill="#03151E"/>
<path d="M1251.94 290.783C1254.06 295.521 1255.14 298.965 1254.29 304.098C1253.94 304.882 1253.46 305.976 1253.01 306.683C1246.8 316.406 1225.44 318.44 1215.54 315.678C1216.66 315.486 1217.8 315.503 1219.04 315.229C1225.1 313.889 1231.79 311.799 1237.25 308.886C1242.42 306.128 1247.6 302.112 1250.05 296.665C1250.68 295.261 1251.48 292.347 1251.94 290.783Z" fill="#03151E"/>
<path d="M1055.18 146.547C1058.22 126.074 1083.65 117.973 1100.12 128.332C1087.99 132.855 1083.98 132.214 1075.48 142.66C1096.91 145.219 1117.21 153.514 1132.26 169.78C1132.62 170.17 1133.02 170.783 1133.07 171.323C1126.91 167.334 1120.32 164.052 1113.43 161.539C1107.59 159.439 1101.2 158.106 1095.13 156.86C1067.33 151.16 1037.71 153.53 1010.12 159.29C1005.43 160.271 1000.91 161.441 996.639 163.749C996.97 168.577 996.395 174.182 996.767 179.553C998.303 180.557 1003.18 183.619 1003.85 184.9C1007.65 192.088 1007.78 205.545 1009.05 213.068C1011.98 230.437 1018.07 248.093 1033.74 257.806C1047.73 266.637 1062.13 269.218 1078.3 268.615C1075.19 271.248 1072.8 272.328 1068.74 272.94C1056.47 274.795 1036.99 269.109 1027.24 261.856C1011.64 250.262 1004.94 225.845 1002.2 207.499C1002.16 202.685 1000.71 196.378 1000.6 190.483C999.226 189.251 997.763 188.024 996.362 186.816C995.31 185.789 994.148 184.862 993.117 183.821C989.707 180.375 990.175 163.902 990.169 159.044C996.196 154.322 1003.46 152.909 1010.68 151.138C1015.3 150.501 1019.49 149.334 1024 148.561C1029.27 147.658 1035.08 147.096 1040.39 146.626C1045.32 146.524 1050.25 146.497 1055.18 146.547Z" fill="#F3EDDD"/>
<path d="M1223.96 128.67C1240.15 117.958 1266.02 126.107 1268.76 146.55C1273.68 146.459 1278.6 146.499 1283.52 146.671C1288.43 146.973 1293.53 147.494 1298.38 148.274C1303.17 149.042 1307.94 150.265 1312.73 151.128C1319.6 152.89 1327.91 154.525 1333.94 158.489C1334.09 165.766 1333.78 174.593 1332.57 181.791C1332.26 183.62 1329.91 185.421 1328.46 186.596C1327 187.68 1325 189.171 1323.74 190.507C1323.54 196.439 1322.77 200.786 1322.13 206.546C1319.38 225.473 1313.18 249.924 1297.16 262.166C1287.7 269.395 1266.42 274.779 1254.65 273.013C1251.16 272.484 1247.91 270.905 1245.35 268.49C1284.35 270.555 1310 251.914 1315.26 213.182C1316.47 204.296 1317.14 194.542 1319.74 186.019C1320.21 184.495 1325.88 180.764 1327.5 179.439C1327.63 174.212 1327.57 168.982 1327.31 163.76C1320.35 159.632 1294.92 155.518 1286.06 154.722C1261.34 152.501 1234.83 153.009 1211.15 161.078C1204.65 163.292 1198.03 166.928 1192.05 170.329C1192.26 168.933 1196.56 165.445 1197.7 164.235C1201.18 160.584 1205.3 158.364 1209.49 155.739C1221.9 147.985 1234.52 144.645 1248.95 142.685C1243.6 135.936 1240.25 133.283 1231.85 130.598C1229.18 129.745 1226.81 129.038 1223.96 128.67Z" fill="#F3EDDD"/>
<path d="M1252.31 169.554C1254.52 169.46 1258.35 169.354 1260.54 169.425C1269.7 169.725 1288.41 169.108 1295.39 176.083C1301.54 182.238 1302.24 191.123 1302.22 199.149C1302.17 213.203 1298.28 232.602 1287.76 242.64C1276.02 253.84 1262.15 255.069 1246.98 254.993C1234.08 254.922 1219.83 250.316 1211.98 239.445C1203.48 227.392 1197.62 212.626 1196.91 197.811C1196.34 186.152 1201.53 181.187 1211.53 176.937C1224.89 171.259 1238.01 169.996 1252.31 169.554Z" fill="#F3EDDD"/>
<path d="M1221.87 241.471C1213.88 235.172 1205.61 225.459 1205.63 214.69C1205.64 205.616 1208.08 197.804 1214.48 191.22C1222.93 182.519 1234.63 180.289 1246.27 179.827C1260.84 178.874 1275.02 180.885 1289.5 180.839C1289.2 184.177 1289.74 188.714 1290.05 192.113C1291.81 211.426 1286.93 226.897 1268.85 235.449C1268.11 239.353 1266.64 241.263 1263.82 243.931C1252.8 254.365 1232.48 249.704 1221.87 241.471Z" fill="#03151E"/>
<path d="M1268.52 190.18C1271.48 190.544 1273.77 190.654 1276.72 191.3C1278.73 202.67 1277.88 211.337 1270.99 220.884C1265.72 228.188 1259.39 231.48 1251.28 234.978C1256.79 236.382 1263.32 237.091 1268.85 235.449C1268.11 239.353 1266.64 241.263 1263.82 243.931C1252.8 254.365 1232.48 249.704 1221.87 241.471C1221.55 238.675 1220.83 231.953 1221.77 229.41C1224.03 223.606 1232.83 224.604 1238.02 223.878C1256.99 221.219 1263.3 206.993 1268.52 190.18Z" fill="#F48814"/>
<path d="M1247.93 190.327C1249.86 190.01 1254.06 190.188 1256.12 190.258C1255.49 197.885 1250.65 207.578 1243.5 211.176C1237.56 214.166 1231.59 214.938 1225.2 212.949C1223.79 212.517 1222.43 211.922 1221.15 211.176C1221.53 207.675 1221.91 205.441 1222.79 202.03C1225.45 204.665 1228.91 207.564 1232.76 207.564C1242.61 207.566 1243.77 197.78 1244.13 190.878L1247.93 190.327Z" fill="#F3EDDD"/>
<path d="M1057.61 169.575C1061.47 169.288 1065.76 169.523 1069.69 169.557C1086.03 169.701 1102.71 171.557 1117.35 179.322C1122.03 181.806 1125.51 186.191 1126.81 191.456C1129.05 200.486 1124.4 215.038 1121.15 223.663C1120.13 226.354 1117.31 231.497 1115.88 234.01C1109.92 244.479 1101.35 250.416 1089.78 253.481C1085.53 254.317 1081.23 254.816 1076.91 254.97C1038.82 256.177 1023.51 236.827 1021.94 200.22C1020.77 172.694 1033.92 170.078 1057.61 169.575Z" fill="#F3EDDD"/>
<path d="M1034.37 180.737C1042.91 180.901 1051.46 180.101 1060 179.739C1065.31 179.528 1070.64 179.539 1075.95 179.772C1080.25 179.923 1084.12 180.128 1088.38 180.847C1105.96 183.814 1118.86 195.904 1118.54 214.404C1118.36 224.828 1110.05 236.739 1101.36 241.969C1091.07 248.854 1080.89 252.018 1068.47 248.672C1061.37 246.757 1057.26 242.347 1055.24 235.329C1036.94 228.383 1032.53 210.122 1034.12 192.269C1034.44 188.645 1034.9 184.328 1034.37 180.737Z" fill="#03151E"/>
<path d="M1047.84 191.177C1050.18 190.813 1052.67 190.381 1055.01 190.127C1059.59 202.554 1063.54 215.177 1076.55 221.251C1080.03 222.874 1087.34 224.559 1091.18 224.405C1102.85 223.937 1105.42 231.721 1101.36 241.969C1091.07 248.854 1080.89 252.018 1068.47 248.672C1061.37 246.757 1057.26 242.347 1055.24 235.329C1062.22 236.784 1065.74 236.907 1072.81 235.177C1060.84 229.48 1053.33 224.409 1048.27 211.341C1046.24 206.118 1045.9 196.447 1047.84 191.177Z" fill="#F48814"/>
<path d="M1068.09 190.252C1072.5 190.029 1075.68 190.223 1080 190.933C1080.29 195.672 1080.49 201.504 1084.22 204.977C1086.11 206.73 1088.61 207.669 1091.19 207.591C1095.2 207.432 1098.17 205.405 1100.73 202.546C1101.59 205.013 1102.26 207.042 1102.96 209.568C1103.12 210.156 1103.15 210.143 1103.06 210.734C1101.17 212.563 1095.51 213.98 1092.96 214.075C1084.27 214.4 1076.02 210.6 1071.99 202.648C1069.7 198.119 1068.39 195.277 1068.09 190.252Z" fill="#F3EDDD"/>
<path d="M1159.05 369.005C1175.26 367.325 1192.34 375.75 1207.18 381.183C1211.36 382.712 1216.6 383.388 1220.43 384.988C1226.02 387.318 1225.67 397.239 1224.34 402.037C1221.49 412.931 1214.84 421.134 1205.64 427.213C1207.35 419.147 1207.23 412.322 1205.57 404.282C1203.79 408.212 1199.93 415.725 1197.65 419.059C1190.9 428.914 1174.32 441.203 1163.8 447.015L1161.9 447.965C1157.05 445.885 1152.6 442.482 1148.4 439.481C1132.14 427.863 1126.37 422.453 1118.66 404.112C1116.67 411.998 1116.45 419.532 1118.53 427.458C1117.59 426.797 1116.65 426.121 1115.73 425.426C1107.83 419.423 1100.41 409.287 1099.35 399.241C1098.78 393.817 1098.26 386.6 1104.6 384.711C1109.04 383.39 1114.08 382.535 1118.31 380.817C1127.21 377.206 1136.12 373.621 1145.32 370.83C1148.91 369.74 1155.2 369.275 1159.05 369.005Z" fill="#F3EDDD"/>
<path d="M1209.87 300.784C1210.03 305.731 1210.07 309.599 1210.54 314.607L1215.54 315.678C1225.44 318.44 1246.8 316.405 1253.01 306.683C1253.46 305.976 1253.94 304.882 1254.29 304.098C1258.13 309.899 1260.08 312.568 1258.67 320.118C1254.52 322.396 1249.91 323.805 1245.47 325.322C1234.06 329.214 1225.5 331.33 1213.4 331.618C1215.79 332.62 1218.23 333.499 1220.71 334.244C1230.77 337.226 1241.04 335.201 1250.92 332.646C1257.21 331.015 1261.8 329.81 1267.62 326.674C1264.04 335.073 1265.7 337.881 1256.55 342.576C1242.5 349.784 1219.82 349.988 1204.92 345.209C1217.4 355.615 1238.38 358.356 1253.71 353.752C1247.51 359.223 1241.04 363.91 1233 366.24C1215.67 371.271 1196.27 364.954 1180.86 356.82C1176.9 354.724 1170.95 351.122 1169.62 346.622C1168.97 344.434 1168.9 340.208 1169.91 338.226C1173.21 331.736 1182.49 322.756 1188.38 319.192C1192.85 316.486 1197.91 315.415 1202.15 311.66C1205.88 308.354 1207.63 305.017 1209.87 300.784Z" fill="#F3EDDD"/>
<path d="M1108.51 315.971C1114.83 314.555 1115.09 313.841 1114.67 307.621C1114.58 306.227 1114.69 303.547 1114.85 302.19L1114.87 301.971C1120.85 313.442 1125.66 314.276 1136.55 319.724C1140.5 321.697 1145.49 327.381 1148.61 330.651C1163.32 345.784 1150.69 353.909 1136.28 360.351C1121.71 366.869 1105.02 370.782 1089.28 365.604C1082.04 363.13 1077.18 359.351 1071.36 354.639C1082.19 355.253 1092.19 357.638 1102.9 353.476C1107.37 351.737 1113.46 350.094 1117.03 346.868C1117.61 346.334 1118.18 345.788 1118.73 345.228C1102.67 349.742 1081.81 350.137 1066.69 342.016C1058.12 337.42 1060.08 334.681 1056.92 326.908C1063.17 329.968 1067.5 331.032 1074.06 332.743C1085.2 335.647 1094.99 337.444 1106.32 333.57C1107.87 333.045 1109.37 332.407 1110.83 331.658C1097.94 331.776 1076.56 326.164 1065.18 319.943C1064.79 311.582 1064.98 310.339 1070.25 304.334C1071.37 307.846 1073.1 310.126 1076.46 311.788C1084.8 315.919 1093.31 317.16 1102.53 316.644C1103.76 316.573 1107.39 316.264 1108.51 315.971Z" fill="#F3EDDD"/>
<path d="M1341.31 272.229C1350.03 279.229 1354.69 287.893 1358.33 298.402C1359.3 301.221 1359.76 304.407 1360.62 307.111C1359.4 313.641 1352.98 327.74 1348.31 332.568C1346.46 321.643 1343.95 316.105 1339.15 306.437C1336.99 311.497 1331.63 321.898 1328.68 326.149C1326.91 325.549 1325.14 325.001 1323.35 324.474C1315.1 322.047 1306.84 319.213 1298.34 317.679C1318.53 306.019 1331.28 293.21 1341.31 272.229Z" fill="#F3EDDD"/>
<path d="M982.847 272.33C991.502 292.347 1006.68 306.879 1025.47 317.575C1016.31 319.653 1004.24 322.85 995.467 326.14C990.285 319.575 988.769 313.799 985.038 306.645C979.57 316.807 977.703 321.437 976.193 332.956C969.867 325.381 965.863 316.294 963.36 306.799C964.41 304.724 965.48 300.184 966.367 297.785C970.33 287.07 974.528 280.094 982.847 272.33Z" fill="#F3EDDD"/>
<path d="M1042 324.625C1042.09 324.694 1046.64 339.693 1047.07 341.151C1044.82 341.362 1041.97 342.182 1039.74 342.676C1031.75 344.443 1024.06 347.261 1016.51 350.408C1014.54 349.002 1011.75 346.093 1009.99 344.323C1007.67 341.988 1005.48 339.707 1003.42 337.12C1001.85 335.132 1000.49 333.06 998.899 331.084C1002.76 329.949 1007.96 328.352 1011.81 327.563C1021.75 325.525 1031.92 325.14 1042 324.625Z" fill="#F3EDDD"/>
<path d="M1282.34 324.552C1294.26 324.814 1306.77 325.828 1318.2 329.219C1320.46 329.89 1322.75 330.505 1325.02 331.145C1321.03 336.477 1318.44 339.492 1313.79 344.292L1307.35 350.588C1299.98 347.91 1293.1 344.786 1285.4 343.063C1282.61 342.439 1279.7 341.577 1276.91 340.863C1278.81 335.432 1280.51 329.824 1282.34 324.552Z" fill="#F3EDDD"/>
<path d="M1050.59 350.3C1051.23 350.203 1051.59 350.286 1051.88 350.862C1054.11 355.378 1057.22 358.512 1060.54 362.27C1056 364.869 1052.28 369.149 1048.61 372.926C1046.42 371.704 1043.3 369.627 1041.11 368.258C1035.65 364.853 1031.05 361.851 1026.31 357.508C1033.8 354.348 1042.66 351.864 1050.59 350.3Z" fill="#F3EDDD"/>
<path d="M1272.87 350.144C1280.13 351.136 1290.52 354.937 1297.69 357.279C1292.71 361.703 1288.82 363.993 1283.27 367.507C1280.44 369.251 1277.9 370.837 1275.17 372.734C1270.56 368.343 1269 366.103 1263.59 362.293C1265.05 360.188 1267.27 358.092 1268.9 356.045C1270.37 354.183 1271.61 352.153 1272.87 350.144Z" fill="#F3EDDD"/>
<path d="M1067.28 371.616C1070.63 373.469 1078.28 381.067 1081 383.823C1080.75 390.641 1080.11 394.609 1080.33 401.819L1080.21 402.15C1080.07 402.079 1079.9 402.004 1079.78 401.878C1074.31 395.868 1070.27 387.358 1068.1 379.552C1067.44 377.161 1067.36 373.899 1067.28 371.616Z" fill="#F3EDDD"/>
<path d="M1256.82 371.463L1257.12 371.633C1256.99 373.498 1256.81 375.402 1256.6 377.206C1255.91 383.097 1248.34 398.905 1243.88 402.089C1244.27 397.683 1243.55 388.668 1242.97 384.255C1245.9 380.342 1252.98 374.488 1256.82 371.463Z" fill="#F3EDDD"/>
<path d="M1392.03 261.691L1392.13 261.804C1392.17 263.56 1392.63 269.445 1391.81 270.787C1391.68 267.753 1391.75 264.713 1392.03 261.691Z" fill="#03151E" fill-opacity="0.635294"/>
</svg>
